<?xml version="1.0" encoding="UTF-8"?>
<svg version="1.1" xmlns="http://www.w3.org/2000/svg" width="500" height="500">
<path d="M0 0 C16.0105277 0.7986249 29.88800511 5.35271785 44 13 C44 13.66 44 14.32 44 15 C44.83660156 15.1959375 45.67320312 15.391875 46.53515625 15.59375 C51.06394383 17.43181486 53.9437451 20.14537693 57.4375 23.5 C58.10056152 24.1293042 58.76362305 24.7586084 59.44677734 25.40698242 C64.36944975 30.17601109 68.52498835 35.06729895 72 41 C72.45503906 41.76957031 72.91007812 42.53914063 73.37890625 43.33203125 C74.63441157 45.53197639 75.82122676 47.75826282 77 50 C77.33644531 50.57492188 77.67289062 51.14984375 78.01953125 51.7421875 C85.46720104 65.09458353 87.31168313 80.08619349 86.6875 95.0625 C86.65317871 95.90208252 86.61885742 96.74166504 86.58349609 97.60668945 C85.4983229 117.73763868 76.5917712 136.7837288 63.35546875 151.875 C62 153 62 153 60 153 C59.73316406 153.60070312 59.46632813 154.20140625 59.19140625 154.8203125 C52.55232132 166.96657279 32.48820593 174.78785462 20.06103516 178.49072266 C13.53692661 180.10281581 6.69944896 180.68977193 0 181 C-1 180 -1 180 -1.11352539 177.40795898 C-1.10828857 176.28204346 -1.10305176 175.15612793 -1.09765625 173.99609375 C-1.09443359 172.78115234 -1.09121094 171.56621094 -1.08789062 170.31445312 C-1.07951172 169.03505859 -1.07113281 167.75566406 -1.0625 166.4375 C-1.05798828 165.15423828 -1.05347656 163.87097656 -1.04882812 162.54882812 C-1.03699545 159.36583978 -1.02051068 156.18294238 -1 153 C2.68890899 151.77036367 6.13699206 151.44329599 10 151 C10 148.4362736 9.3561089 147.16977424 8 145 C7.34 144.67 6.68 144.34 6 144 C3.47154472 142.73577236 3.23577236 141.47154472 2 139 C1.34 138.67 0.68 138.34 0 138 C-2.52845528 136.73577236 -2.76422764 135.47154472 -4 133 C-4.57878906 132.72800781 -5.15757812 132.45601562 -5.75390625 132.17578125 C-8.70342523 130.63177218 -10.61911657 128.57018374 -12.9375 126.1875 C-13.77152344 125.33542969 -14.60554687 124.48335938 -15.46484375 123.60546875 C-16.71974609 122.31576172 -16.71974609 122.31576172 -18 121 C-19.66435667 119.33102653 -21.33034916 117.66367714 -23 116 C-21.4411666 112.17377257 -19.04566418 109.74852621 -16 107 C-14.515 106.505 -14.515 106.505 -13 106 C-12.731875 105.44828125 -12.46375 104.8965625 -12.1875 104.328125 C-10.42243346 100.8676656 -7.74786702 98.45898211 -5 95.75 C-4.4534375 95.19570312 -3.906875 94.64140625 -3.34375 94.0703125 C0.7466133 90 0.7466133 90 3 90 C3.309375 89.20335937 3.309375 89.20335937 3.625 88.390625 C5.57961192 84.99226564 8.22123717 82.48944072 11 79.75 C11.5465625 79.19570312 12.093125 78.64140625 12.65625 78.0703125 C16.7466133 74 16.7466133 74 19 74 C19 73.34 19 72.68 19 72 C22 72 22 72 24.625 74.3125 C27 77 27 77 28 80 C28.99 80.495 28.99 80.495 30 81 C30.99 81.495 30.99 81.495 32 82 C32.33 82.99 32.66 83.98 33 85 C33.66 85 34.32 85 35 85 C34.42729947 88.68714456 32.99904994 90.35534323 30.359375 92.93359375 C29.61816406 93.66513672 28.87695312 94.39667969 28.11328125 95.15039062 C27.33339844 95.90513672 26.55351562 96.65988281 25.75 97.4375 C24.98558594 98.18837891 24.22117187 98.93925781 23.43359375 99.71289062 C20.76440334 102.33367603 18.08700476 104.94586937 15.40161133 107.55004883 C12.73472719 110.16524349 10.78744691 112.70733465 9 116 C9.66 116.61875 10.32 117.2375 11 117.875 C13 120 13 120 13 122 C13.79664063 122.309375 13.79664063 122.309375 14.609375 122.625 C18.00773436 124.57961192 20.51055928 127.22123717 23.25 130 C23.80429687 130.5465625 24.35859375 131.093125 24.9296875 131.65625 C29 135.7466133 29 135.7466133 29 138 C30.32 138.66 31.64 139.32 33 140 C36.77817141 137.64913779 39.42254901 135.60843139 42 132 C42.66 132 43.32 132 44 132 C44.33 130.68 44.66 129.36 45 128 C45.66 128 46.32 128 47 128 C47.26941406 127.278125 47.53882813 126.55625 47.81640625 125.8125 C49 123 49 123 50.40234375 120.625 C58.88693119 106.11700315 59.53846897 88.27651028 55.64794922 72.20507812 C53.24993116 64.04422693 48.41689911 57.01225035 43.06640625 50.48828125 C42 49 42 49 42 47 C41.34 47 40.68 47 40 47 C38.31066078 45.3563186 36.64740076 43.6857124 35 42 C25.62281214 34.06064761 15.41780114 31.07049722 3.61328125 28.76171875 C0 28 0 28 -1 27 C-1.09971786 25.08541718 -1.13080589 23.16717683 -1.1328125 21.25 C-1.13410156 20.0846875 -1.13539063 18.919375 -1.13671875 17.71875 C-1.13285156 16.4915625 -1.12898438 15.264375 -1.125 14 C-1.13080078 12.15921875 -1.13080078 12.15921875 -1.13671875 10.28125 C-1.13542969 9.1159375 -1.13414062 7.950625 -1.1328125 6.75 C-1.13168457 5.67234375 -1.13055664 4.5946875 -1.12939453 3.484375 C-1 1 -1 1 0 0 Z " fill="#FDFDFD" transform="translate(263,122)"/>
<path d="M0 0 C0 9.24 0 18.48 0 28 C-3.63 28.99 -7.26 29.98 -11 31 C-10.21238281 31.77714355 -9.42476563 32.55428711 -8.61328125 33.35498047 C-5.70102919 36.23111673 -2.79533221 39.11379804 0.10839844 41.99853516 C1.36767713 43.24773702 2.62874236 44.49514056 3.89160156 45.74072266 C5.70326412 47.52821075 7.50846839 49.32200227 9.3125 51.1171875 C9.88121826 51.67558319 10.44993652 52.23397888 11.03588867 52.80929565 C12.3957465 54.16875885 13.70341173 55.58006607 15 57 C15 57.66 15 58.32 15 59 C15.5775 59.20625 16.155 59.4125 16.75 59.625 C19.81410544 61.49750888 21.15539968 63.96958519 23 67 C22.4644751 67.4647876 21.9289502 67.9295752 21.37719727 68.40844727 C13.63547774 75.24387353 6.34515675 82.50238095 -0.9440918 89.8137207 C-3.0859252 91.96098459 -5.23314409 94.1027615 -7.38085938 96.24414062 C-8.74511301 97.60905389 -10.10905705 98.97427668 -11.47265625 100.33984375 C-12.43498924 101.2991404 -12.43498924 101.2991404 -13.41676331 102.27781677 C-14.00505417 102.8692598 -14.59334503 103.46070282 -15.19946289 104.07006836 C-15.7177919 104.58919296 -16.23612091 105.10831757 -16.77015686 105.64317322 C-18.11379132 107.00314006 -18.11379132 107.00314006 -19 109 C-22 109 -22 109 -24.1875 107.125 C-26 105 -26 105 -26 103 C-26.598125 102.731875 -27.19625 102.46375 -27.8125 102.1875 C-29.99847854 101.00082594 -31.41332594 99.90400887 -33 98 C-33 97.34 -33 96.68 -33 96 C-33.99 95.67 -34.98 95.34 -36 95 C-34.40907948 90.86360664 -31.39525082 87.76786752 -28 85 C-27.34 85 -26.68 85 -26 85 C-25.731875 84.360625 -25.46375 83.72125 -25.1875 83.0625 C-24 81 -24 81 -21 80 C-20.70480469 79.40058594 -20.40960938 78.80117187 -20.10546875 78.18359375 C-18.2782609 74.57437401 -14.94254559 72.55536614 -11.80078125 70.09765625 C-9.72548758 68.1401697 -9.72548758 68.1401697 -9.99609375 65.46484375 C-11.16432213 62.59654762 -12.34065217 61.42023211 -14.75 59.5 C-15.46929687 58.90574219 -16.18859375 58.31148437 -16.9296875 57.69921875 C-17.61289063 57.13847656 -18.29609375 56.57773438 -19 56 C-23.70989761 51.59726962 -23.70989761 51.59726962 -25.0625 48.8125 C-26.28310909 46.45265575 -27.6406599 46.10594067 -30 45 C-30.66 44.01 -31.32 43.02 -32 42 C-34.94091587 42.18415432 -34.94091587 42.18415432 -38 43 C-39.20003343 44.81601365 -39.20003343 44.81601365 -40 47 C-41.31328657 48.35308313 -42.64499081 49.68870078 -44 51 C-44.495 51.99 -44.495 51.99 -45 53 C-45.66 53 -46.32 53 -47 53 C-47.2475 53.845625 -47.495 54.69125 -47.75 55.5625 C-49 59 -49 59 -50.875 62.0625 C-55.26375205 69.45927312 -57.43138303 78.47074543 -58 87 C-58.0515625 87.65742188 -58.103125 88.31484375 -58.15625 88.9921875 C-58.67263973 100.74005384 -54.95872549 111.02162607 -49.42578125 121.13671875 C-48 124 -48 124 -48 127 C-47.01 127.33 -46.02 127.66 -45 128 C-43.9935725 129.66279327 -42.99414593 131.32983484 -42 133 C-40.68036291 134.01800576 -39.34990354 135.02248365 -38 136 C-38 136.66 -38 137.32 -38 138 C-37.2575 138.27199219 -36.515 138.54398438 -35.75 138.82421875 C-33.1602438 139.93148667 -31.2516587 141.14574483 -29 142.8125 C-19.96644118 148.94991787 -10.69910903 151.05470745 0 153 C0 162.24 0 171.48 0 181 C-16.88527802 179.67045055 -33.10415805 176.38841364 -47 166 C-47 165.34 -47 164.68 -47 164 C-47.53367188 163.94328125 -48.06734375 163.8865625 -48.6171875 163.828125 C-52.11410529 162.61280275 -54.47209548 160.24044195 -57.125 157.75 C-57.69613525 157.2149585 -58.26727051 156.67991699 -58.85571289 156.12866211 C-68.36917494 146.9974907 -75.00068308 137.27819657 -80 125 C-80.38929688 124.14792969 -80.77859375 123.29585938 -81.1796875 122.41796875 C-84.11808558 115.77976286 -85.08202324 109.16203653 -86 102 C-86.17789063 101.030625 -86.35578125 100.06125 -86.5390625 99.0625 C-87.06147558 95.5915521 -87.16914318 92.25982379 -87.1875 88.75 C-87.20167969 87.52796875 -87.21585938 86.3059375 -87.23046875 85.046875 C-86.49397849 61.78775558 -73.88262349 40.58051085 -58.33203125 24.1875 C-55.9463859 21.94970871 -55.01379566 21.72746792 -52 21 C-51.7215625 20.39027344 -51.443125 19.78054687 -51.15625 19.15234375 C-46.87627184 11.18522224 -31.48305096 6.53662791 -23.41015625 3.76953125 C-15.6086871 1.42316105 -8.14633225 0 0 0 Z " fill="#FDFDFD" transform="translate(255,122)"/>
<path d="M0 0 C9.82930939 0.27789671 9.82930939 0.27789671 12.8828125 3.125 C14.20586295 5.48557938 15.11773616 7.70983454 15.91796875 10.29296875 C16.15644531 11.00324219 16.39492187 11.71351563 16.640625 12.4453125 C17.13366012 14.04196266 17.53716464 15.66589666 17.91796875 17.29296875 C18.57796875 17.29296875 19.23796875 17.29296875 19.91796875 17.29296875 C20.09972656 16.72449219 20.28148437 16.15601563 20.46875 15.5703125 C22.05626376 10.69379588 23.62187228 5.88516169 25.91796875 1.29296875 C28.98631416 0.27018695 31.08030303 0.15935571 34.29296875 0.16796875 C35.69675781 0.16410156 35.69675781 0.16410156 37.12890625 0.16015625 C42.73454252 0.35664247 48.32541158 0.86277204 53.91796875 1.29296875 C53.91796875 13.17296875 53.91796875 25.05296875 53.91796875 37.29296875 C59.85796875 37.29296875 65.79796875 37.29296875 71.91796875 37.29296875 C71.91796875 38.61296875 71.91796875 39.93296875 71.91796875 41.29296875 C72.24667969 40.41640625 72.57539063 39.53984375 72.9140625 38.63671875 C77.58203125 26.18880208 82.25 13.74088542 86.91796875 1.29296875 C92.19796875 1.29296875 97.47796875 1.29296875 102.91796875 1.29296875 C105.14506042 6.80372582 107.32249639 12.32746083 109.42578125 17.88671875 C110.06966797 19.58441406 110.06966797 19.58441406 110.7265625 21.31640625 C111.61549638 23.66403579 112.50082643 26.01303265 113.3828125 28.36328125 C113.80949219 29.48476563 114.23617187 30.60625 114.67578125 31.76171875 C115.05879395 32.77685547 115.44180664 33.79199219 115.83642578 34.83789062 C116.79184914 37.40820255 116.79184914 37.40820255 118.91796875 39.29296875 C119.24796875 26.75296875 119.57796875 14.21296875 119.91796875 1.29296875 C125.19796875 1.29296875 130.47796875 1.29296875 135.91796875 1.29296875 C136.46066406 2.46214844 137.00335938 3.63132812 137.5625 4.8359375 C138.28501369 6.38418112 139.00767788 7.93235451 139.73046875 9.48046875 C140.08689453 10.24939453 140.44332031 11.01832031 140.81054688 11.81054688 C143.67336093 19.09824207 143.67336093 19.09824207 148.91796875 24.29296875 C148.91796875 16.70296875 148.91796875 9.11296875 148.91796875 1.29296875 C151.02171875 1.10734375 153.12546875 0.92171875 155.29296875 0.73046875 C156.47632813 0.62605469 157.6596875 0.52164062 158.87890625 0.4140625 C161.91796875 0.29296875 161.91796875 0.29296875 163.91796875 1.29296875 C163.42792358 2.74823975 163.42792358 2.74823975 162.92797852 4.23291016 C161.68452884 8.60564764 161.68102483 12.73587248 161.7578125 17.25390625 C161.76301407 18.08507965 161.76821564 18.91625305 161.77357483 19.77261353 C161.791267 22.40458347 161.82245656 25.03615001 161.85546875 27.66796875 C161.88307125 30.3211692 161.9077417 32.97431702 161.926651 35.62759399 C161.93893148 37.27361987 161.95655771 38.91961599 161.97996521 40.56552124 C161.99685778 42.47470752 161.96269018 44.38423157 161.91796875 46.29296875 C160.91796875 47.29296875 160.91796875 47.29296875 157.5390625 47.390625 C156.14449798 47.38395244 154.74995132 47.37199407 153.35546875 47.35546875 C152.64455078 47.35095703 151.93363281 47.34644531 151.20117188 47.34179688 C149.44006862 47.32997739 147.67900839 47.31204138 145.91796875 47.29296875 C145.12132812 45.68228516 145.12132812 45.68228516 144.30859375 44.0390625 C143.5951613 42.60281033 142.88161346 41.16661547 142.16796875 39.73046875 C141.64589844 38.67375977 141.64589844 38.67375977 141.11328125 37.59570312 C137.67673519 29.33995994 137.67673519 29.33995994 131.91796875 23.29296875 C131.91796875 31.21296875 131.91796875 39.13296875 131.91796875 47.29296875 C127.62660529 47.51380387 123.33540274 47.72020216 119.04296875 47.91796875 C117.81964844 47.98242188 116.59632813 48.046875 115.3359375 48.11328125 C114.16933594 48.16484375 113.00273437 48.21640625 111.80078125 48.26953125 C110.18260498 48.3480835 110.18260498 48.3480835 108.53173828 48.42822266 C105.91796875 48.29296875 105.91796875 48.29296875 103.91796875 46.29296875 C103.06166605 43.66063083 102.52866948 40.99750057 101.91796875 38.29296875 C100.93054688 38.30457031 99.943125 38.31617188 98.92578125 38.328125 C97.64445312 38.33714844 96.363125 38.34617187 95.04296875 38.35546875 C93.76679688 38.36707031 92.490625 38.37867188 91.17578125 38.390625 C87.91796875 38.29296875 87.91796875 38.29296875 85.91796875 37.29296875 C85.85738281 37.93105469 85.79679687 38.56914062 85.734375 39.2265625 C85.60869141 40.46599609 85.60869141 40.46599609 85.48046875 41.73046875 C85.35865234 42.96603516 85.35865234 42.96603516 85.234375 44.2265625 C84.91796875 46.29296875 84.91796875 46.29296875 83.91796875 47.29296875 C82.5363676 47.38575205 81.15008837 47.41043918 79.76538086 47.40649414 C78.8845433 47.40641861 78.00370575 47.40634308 77.09617615 47.40626526 C76.13889114 47.40110397 75.18160614 47.39594269 74.1953125 47.390625 C73.22010147 47.38921005 72.24489044 47.3877951 71.24012756 47.38633728 C68.11187732 47.38072008 64.98369752 47.36816468 61.85546875 47.35546875 C59.74023541 47.35045597 57.62500094 47.34589268 55.50976562 47.34179688 C50.31247579 47.33074506 45.1152273 47.31399021 39.91796875 47.29296875 C38.30495102 44.0669333 38.79743276 40.54586837 38.8203125 37.00390625 C38.82172745 36.18548248 38.8231424 35.36705872 38.82460022 34.52383423 C38.83020585 31.9051755 38.84275927 29.28660171 38.85546875 26.66796875 C38.86048303 24.89453248 38.86504606 23.12109488 38.86914062 21.34765625 C38.88017711 16.99606093 38.8974455 12.64452925 38.91796875 8.29296875 C36.8529565 11.00212301 35.08836715 13.66304388 33.48046875 16.66796875 C32.06065194 19.32016781 30.69358854 21.57334032 28.8046875 23.93359375 C26.22482264 28.52714195 26.2493371 32.482586 26.16796875 37.66796875 C26.12349609 39.05822266 26.12349609 39.05822266 26.078125 40.4765625 C26.00785014 42.7487831 25.95494827 45.02000334 25.91796875 47.29296875 C23.60553083 47.31982287 21.29300605 47.33929716 18.98046875 47.35546875 C17.69269531 47.36707031 16.40492188 47.37867188 15.078125 47.390625 C11.91796875 47.29296875 11.91796875 47.29296875 10.91796875 46.29296875 C10.99390383 42.61011749 11.09402596 38.93526598 11.30859375 35.2578125 C11.4489509 29.91546831 10.63034927 27.10064451 7.24560547 22.96826172 C5.10105911 20.26214235 3.83265539 17.2868547 2.35546875 14.16796875 C0.25464827 9.73344239 -1.87241431 6.01528161 -5.08203125 2.29296875 C-3.08203125 0.29296875 -3.08203125 0.29296875 0 0 Z M38.91796875 4.29296875 C39.91796875 6.29296875 39.91796875 6.29296875 39.91796875 6.29296875 Z M94.91796875 14.29296875 C95.91796875 16.29296875 95.91796875 16.29296875 95.91796875 16.29296875 Z M93.91796875 17.29296875 C93.22097323 18.74678772 92.53563009 20.20619828 91.85546875 21.66796875 C91.47261719 22.48007812 91.08976562 23.2921875 90.6953125 24.12890625 C90.31052734 25.20011719 90.31052734 25.20011719 89.91796875 26.29296875 C90.24796875 26.95296875 90.57796875 27.61296875 90.91796875 28.29296875 C93.88796875 28.29296875 96.85796875 28.29296875 99.91796875 28.29296875 C99.30145292 26.64393855 98.67449133 24.99881034 98.04296875 23.35546875 C97.69492187 22.43894531 97.346875 21.52242188 96.98828125 20.578125 C96.13606015 18.14355819 96.13606015 18.14355819 93.91796875 17.29296875 Z M131.91796875 18.29296875 C132.91796875 20.29296875 132.91796875 20.29296875 132.91796875 20.29296875 Z M147.91796875 27.29296875 C148.91796875 29.29296875 148.91796875 29.29296875 148.91796875 29.29296875 Z M148.91796875 29.29296875 C149.91796875 31.29296875 149.91796875 31.29296875 149.91796875 31.29296875 Z M116.91796875 40.29296875 C117.57796875 41.61296875 118.23796875 42.93296875 118.91796875 44.29296875 C119.24796875 42.97296875 119.57796875 41.65296875 119.91796875 40.29296875 C118.92796875 40.29296875 117.93796875 40.29296875 116.91796875 40.29296875 Z M118.91796875 44.29296875 C119.91796875 46.29296875 119.91796875 46.29296875 119.91796875 46.29296875 Z " fill="#FCFCFC" transform="translate(228.08203125,330.70703125)"/>
<path d="M0 0 C2.35694954 0.09031574 4.71153582 0.24688128 7.0625 0.4375 C8.35285156 0.53933594 9.64320313 0.64117187 10.97265625 0.74609375 C12.47119141 0.87177734 12.47119141 0.87177734 14 1 C14.02505615 2.02472412 14.0501123 3.04944824 14.07592773 4.10522461 C14.16984484 7.89409676 14.27010317 11.68277881 14.37231445 15.47143555 C14.41572297 17.11364303 14.45739358 18.75589739 14.49731445 20.39819336 C14.5548744 22.75388745 14.61860892 25.10934428 14.68359375 27.46484375 C14.70030624 28.20339096 14.71701874 28.94193817 14.73423767 29.7028656 C14.53548013 33.14300627 14.53548013 33.14300627 16 36 C18.53049402 36.07313567 21.03304837 36.09247527 23.5625 36.0625 C24.27341797 36.05798828 24.98433594 36.05347656 25.71679688 36.04882812 C27.47790013 36.03700864 29.23896036 36.01907263 31 36 C30.99214478 34.47076904 30.99214478 34.47076904 30.98413086 32.91064453 C30.96605624 29.13493729 30.95455895 25.35923388 30.94506836 21.58349609 C30.94003379 19.94807289 30.93320573 18.3126542 30.92456055 16.67724609 C30.91245665 14.32909025 30.906763 11.98099381 30.90234375 9.6328125 C30.89718246 8.89942657 30.89202118 8.16604065 30.88670349 7.41043091 C30.88612829 2.22774341 30.88612829 2.22774341 32 0 C36.62 0 41.24 0 46 0 C46.90072065 4.50360324 47.04189959 7.94257821 46.87890625 12.48828125 C46.84348976 13.5430793 46.84348976 13.5430793 46.80735779 14.6191864 C46.7311907 16.85052072 46.64696693 19.081466 46.5625 21.3125 C46.50923218 22.83136159 46.45649215 24.3502418 46.40429688 25.86914062 C46.27662458 29.57974334 46.13804739 33.28971092 46 37 C51.94 37 57.88 37 64 37 C64 39.97 64 42.94 64 46 C61.37225544 48.62774456 54.08211666 47.50298784 50.5625 47.625 C49.29180664 47.66931152 48.02111328 47.71362305 46.71191406 47.75927734 C36.21493828 48.07982145 25.74556141 47.93673966 15.25 47.625 C14.49236359 47.60367004 13.73472717 47.58234009 12.95413208 47.56036377 C10.8076752 47.4975116 8.66168846 47.42656377 6.515625 47.3515625 C5.28102539 47.30854004 4.04642578 47.26551758 2.77441406 47.22119141 C0 47 0 47 -1 46 C-1.09804851 44.5932478 -1.12798186 43.18164864 -1.12939453 41.77148438 C-1.13254669 40.87385376 -1.13569885 39.97622314 -1.13894653 39.0513916 C-1.1369223 38.07536987 -1.13489807 37.09934814 -1.1328125 36.09375 C-1.13376923 35.0987146 -1.13472595 34.1036792 -1.13571167 33.07849121 C-1.1363936 30.97013282 -1.13453844 28.86177235 -1.13037109 26.75341797 C-1.12502303 23.51394973 -1.13031567 20.27462015 -1.13671875 17.03515625 C-1.13605797 14.99218719 -1.13477681 12.94921822 -1.1328125 10.90625 C-1.13483673 9.93022827 -1.13686096 8.95420654 -1.13894653 7.9486084 C-1.13579437 7.05097778 -1.13264221 6.15334717 -1.12939453 5.22851562 C-1.12859894 4.43433228 -1.12780334 3.64014893 -1.12698364 2.82189941 C-1 1 -1 1 0 0 Z M31 38 C31 39.98 31 41.96 31 44 C31.33 44 31.66 44 32 44 C32 42.02 32 40.04 32 38 C31.67 38 31.34 38 31 38 Z " fill="#FDFDFD" transform="translate(171,331)"/>
<path d="M0 0 C3.77068057 -0.08849232 7.54108765 -0.14088454 11.3125 -0.1875 C12.36501953 -0.21263672 13.41753906 -0.23777344 14.50195312 -0.26367188 C23.09275899 -0.34297162 31.40972091 0.68663192 39 5 C40.44921875 6.8046875 40.44921875 6.8046875 41.6875 8.875 C42.10386719 9.55304688 42.52023437 10.23109375 42.94921875 10.9296875 C45.79745579 16.54145565 45.67927031 22.85569133 45 29 C42.90209613 35.04051632 39.39700695 39.53776913 34 43 C26.80269724 45.93458715 20.06857546 46.38780003 12.375 46.1875 C11.37082031 46.17396484 10.36664063 46.16042969 9.33203125 46.14648438 C6.88743136 46.11156152 4.44402266 46.06252748 2 46 C0.82218232 41.80864583 0.89255568 37.75957235 0.9375 33.4375 C0.94128662 32.60919678 0.94507324 31.78089355 0.94897461 30.92749023 C0.9653007 27.3907262 0.99347082 23.85407854 1.02050781 20.31738281 C1.03858442 17.7324273 1.05068261 15.14749047 1.0625 12.5625 C1.07079834 11.76448975 1.07909668 10.96647949 1.08764648 10.14428711 C1.10337769 6.58404641 0.96227573 3.42433169 0 0 Z M15 9 C15 18.24 15 27.48 15 37 C23.48446815 36.54944891 23.48446815 36.54944891 29 32 C31.25803303 28.02156085 31.38943376 24.51743161 31 20 C29.01676251 14.31087584 29.01676251 14.31087584 25 10 C21.4202491 8.63106761 21.4202491 8.63106761 15 9 Z " fill="#FCFCFC" transform="translate(394,332)"/>
<path d="M0 0 C6.10353382 3.73169425 9.11355588 9.90717858 10.8515625 16.671875 C12.01548596 24.36485483 11.26750943 31.38982137 6.64453125 37.76953125 C2.27765285 42.86422271 -2.8731661 45.8805659 -9.50390625 46.7421875 C-17.72681393 47.12170632 -24.10780074 45.38136861 -30.3984375 39.94921875 C-35.29133707 34.22894841 -35.8055179 25.96835173 -35.69921875 18.71875 C-35.21232592 13.32686271 -34.17289319 9.17607743 -30.73828125 4.8828125 C-21.18614192 -3.07730361 -11.50080645 -5.16362738 0 0 Z M-17.61328125 9.6328125 C-20.85555419 13.82869513 -20.92205788 17.01333365 -20.98828125 22.1953125 C-21.0140625 23.39800781 -21.03984375 24.60070312 -21.06640625 25.83984375 C-20.70576831 29.73387479 -19.80159975 32.08053873 -17.73828125 35.3828125 C-14.9211993 37.69818845 -14.9211993 37.69818845 -11.73828125 37.1953125 C-8.62530739 36.35221541 -7.57702659 35.95705598 -5.73828125 33.3828125 C-2.8312052 27.19181722 -2.68418385 20.46033895 -4.390625 13.859375 C-5.30442937 11.68663843 -6.13905575 10.11296874 -7.73828125 8.3828125 C-12.25482644 6.65831343 -13.77709687 6.63058124 -17.61328125 9.6328125 Z " fill="#FCFCFC" transform="translate(156.73828125,332.6171875)"/>
<path d="M0 0 C4.67964759 0.17931901 9.33128895 0.62145586 14 1 C14.33 6.61 14.66 12.22 15 18 C18.3 18 21.6 18 25 18 C24.67 16.68 24.34 15.36 24 14 C23.86792343 9.32977236 23.9567299 4.67317059 24 0 C30.93 0.495 30.93 0.495 38 1 C38 16.18 38 31.36 38 47 C28 48 28 48 24 47 C24 41.06 24 35.12 24 29 C20.7 28.67 17.4 28.34 14 28 C14 34.27 14 40.54 14 47 C9.38 47 4.76 47 0 47 C-1.1610884 44.67782321 -1.12673847 43.33438469 -1.12939453 40.74975586 C-1.13254669 39.87222153 -1.13569885 38.99468719 -1.13894653 38.09056091 C-1.1369223 37.14157425 -1.13489807 36.19258759 -1.1328125 35.21484375 C-1.13376923 34.24341934 -1.13472595 33.27199493 -1.13571167 32.27113342 C-1.13639283 30.21582983 -1.13454299 28.16052408 -1.13037109 26.10522461 C-1.1250162 22.94705411 -1.13032122 19.78902546 -1.13671875 16.63085938 C-1.13605807 14.63802052 -1.13477712 12.64518175 -1.1328125 10.65234375 C-1.13483673 9.70133286 -1.13686096 8.75032196 -1.13894653 7.77049255 C-1.13579437 6.89611038 -1.13264221 6.02172821 -1.12939453 5.12084961 C-1.12859894 4.34744736 -1.12780334 3.5740451 -1.12698364 2.77720642 C-1 1 -1 1 0 0 Z " fill="#FDFDFD" transform="translate(79,331)"/>
<path d="" fill="#FFFFFF" transform="translate(0,0)"/>
<path d="" fill="#FFFFFF" transform="translate(0,0)"/>
</svg>
