<?xml version="1.0" encoding="UTF-8"?>
<svg version="1.1" xmlns="http://www.w3.org/2000/svg" width="500" height="500">
<path d="M0 0 C1.06831055 0.01546875 1.06831055 0.01546875 2.15820312 0.03125 C6.1608095 0.22378981 8.01280546 0.73107947 11.13671875 3.3046875 C13.84247865 6.69590657 14.27257703 8.03445428 14.0625 12.25 C13.92664723 15.84605904 13.92664723 15.84605904 15.6875 18.875 C17.83576939 21.73935919 17.72130445 24.17253878 17.6171875 27.68359375 C16.9293902 31.19135996 14.94801575 32.77174991 12.1875 34.875 C9.78690183 36.07529908 8.29389351 35.98959743 5.6171875 35.97265625 C4.81007324 35.97015869 4.00295898 35.96766113 3.17138672 35.96508789 C2.1454541 35.95598389 1.11952148 35.94687988 0.0625 35.9375 C-4.825625 35.9065625 -4.825625 35.9065625 -9.8125 35.875 C-9.8125 24.325 -9.8125 12.775 -9.8125 0.875 C-6.67216276 -0.69516862 -3.42378992 -0.15853702 0 0 Z M-1.8125 8.875 C-1.8125 10.855 -1.8125 12.835 -1.8125 14.875 C1.61980448 14.61106499 1.61980448 14.61106499 5.1875 13.875 C5.8475 12.885 6.5075 11.895 7.1875 10.875 C5.23116025 8.46378141 5.23116025 8.46378141 1.5625 8.75 C-0.108125 8.811875 -0.108125 8.811875 -1.8125 8.875 Z M-1.8125 21.875 C-1.8125 23.855 -1.8125 25.835 -1.8125 27.875 C-0.35426788 27.9020043 1.10410675 27.92139787 2.5625 27.9375 C3.78066406 27.95490234 3.78066406 27.95490234 5.0234375 27.97265625 C7.23687142 28.01966334 7.23687142 28.01966334 9.1875 26.875 C9.1875 25.555 9.1875 24.235 9.1875 22.875 C6.78204362 21.67227181 5.23753047 21.77428528 2.5625 21.8125 C1.74523437 21.82152344 0.92796875 21.83054687 0.0859375 21.83984375 C-0.54054688 21.85144531 -1.16703125 21.86304688 -1.8125 21.875 Z " fill="#F4F5F4" transform="translate(102.8125,239.125)"/>
<path d="M0 0 C1.5625 2.0625 1.5625 2.0625 1.4375 4.1875 C0.5625 6.0625 0.5625 6.0625 -1.4375 8.0625 C-5.4375 8.0625 -5.4375 8.0625 -7.0625 6.625 C-7.743125 5.8515625 -7.743125 5.8515625 -8.4375 5.0625 C-11.22665389 3.66792306 -13.34023264 3.8803078 -16.4375 4.0625 C-18.11836226 4.69251928 -19.78816409 5.35404162 -21.4375 6.0625 C-21.63351608 7.81156659 -21.81897403 9.56181846 -22 11.3125 C-22.10441406 12.28703125 -22.20882813 13.2615625 -22.31640625 14.265625 C-22.42851493 16.85497396 -22.36725549 18.65607402 -21.4375 21.0625 C-17.7916929 23.14581834 -14.58069233 23.41511211 -10.4375 23.0625 C-8.13519234 22.16418984 -8.13519234 22.16418984 -6.4375 21.0625 C-6.4375 20.4025 -6.4375 19.7425 -6.4375 19.0625 C-8.0875 18.7325 -9.7375 18.4025 -11.4375 18.0625 C-11.7675 16.0825 -12.0975 14.1025 -12.4375 12.0625 C-3.5859375 9.828125 -3.5859375 9.828125 0.625 10.6875 C2.5625 12.0625 2.5625 12.0625 3.24609375 13.875 C3.83671618 17.95831553 2.40600992 21.45047039 0.5625 25.0625 C-3.64822996 29.95303456 -7.36496582 31.83061063 -13.75 32.3125 C-18.49567266 31.99075948 -22.36825669 31.01162893 -25.91796875 27.66796875 C-30.9516388 21.83717793 -31.89220298 17.61240972 -31.75390625 10.04296875 C-31.1725911 4.56712355 -28.94578622 1.53211221 -25 -2.3125 C-16.9326631 -7.42837218 -7.15579714 -5.68794131 0 0 Z " fill="#F4F4F4" transform="translate(435.4375,243.9375)"/>
<path d="M0 0 C7.39342549 0.60379641 13.08387204 1.54756069 18.43359375 6.953125 C21.68873424 11.20672504 23.07329459 15.18462555 22.93359375 20.55078125 C22.05103172 26.67297471 19.85961411 31.11015367 15 35 C9.43965451 38.38303125 4.2311436 38.39786111 -2 37 C-5.0625 35.9375 -5.0625 35.9375 -7 35 C-7 34.34 -7 33.68 -7 33 C-7.598125 32.79375 -8.19625 32.5875 -8.8125 32.375 C-12.04472526 30.34331555 -12.73259475 28.61210496 -14 25 C-14.69783236 18.65349756 -14.56899233 13.50219652 -11 8 C-10.34 8 -9.68 8 -9 8 C-9 7.34 -9 6.68 -9 6 C-8.34 6 -7.68 6 -7 6 C-7 5.34 -7 4.68 -7 4 C-4 2 -4 2 0 2 C0 1.34 0 0.68 0 0 Z M-4 12 C-6.56446145 15.41928194 -6.29641484 18.8501922 -6 23 C-5.10040209 25.94413861 -4.19597914 26.84757178 -1.75 28.75 C1.50701415 30.23046098 3.45595039 30.4430062 7 30 C9.74039337 28.75436665 11.4643868 27.68864555 13.3125 25.3125 C14.34754666 21.83097941 14.71228432 18.5543693 14 15 C11.82425584 12.30894802 10.08934144 10.54467072 7 9 C2.36445612 8.58795166 -0.30416098 9.12545854 -4 12 Z " fill="#F2F2F0" transform="translate(316,238)"/>
<path d="M0 0 C2.64 0 5.28 0 8 0 C8.33 1.98 8.66 3.96 9 6 C12.24514077 5.6394288 13.02748582 4.96869671 15.25 2.4375 C18.19282803 -0.17091575 18.63064149 -0.33847431 22.3125 -0.3125 C23.529375 -0.209375 24.74625 -0.10625 26 0 C26.33 0.99 26.66 1.98 27 3 C26.34 3 25.68 3 25 3 C25 3.66 25 4.32 25 5 C24.34 5 23.68 5 23 5 C22.731875 5.639375 22.46375 6.27875 22.1875 6.9375 C21 9 21 9 18 10 C16.04457812 12.98459129 16 14.26414791 16 18 C16.61344757 19.68698082 17.27095914 21.35965807 18 23 C18.66 23 19.32 23 20 23 C20 23.66 20 24.32 20 25 C20.66 25 21.32 25 22 25 C23.2890625 26.42578125 23.2890625 26.42578125 24.625 28.3125 C25.07101563 28.92738281 25.51703125 29.54226563 25.9765625 30.17578125 C27 32 27 32 27 35 C18.85614849 35.62645012 18.85614849 35.62645012 15.4375 33.125 C14 31 14 31 14 29 C12.35 28.67 10.7 28.34 9 28 C8.01 31.465 8.01 31.465 7 35 C5.00045254 35.04254356 2.99958364 35.04080783 1 35 C0 34 0 34 -0.11352539 30.76538086 C-0.11336631 29.33185874 -0.10767407 27.89833088 -0.09765625 26.46484375 C-0.0962413 25.71159317 -0.09482635 24.95834259 -0.09336853 24.18226624 C-0.08775376 21.7673044 -0.07519883 19.35243399 -0.0625 16.9375 C-0.0574869 15.30403779 -0.05292366 13.67057414 -0.04882812 12.03710938 C-0.03777954 8.02470415 -0.02050506 4.01236759 0 0 Z " fill="#F7F8F7" transform="translate(222,240)"/>
<path d="M0 0 C0.83660156 0.00386719 1.67320312 0.00773438 2.53515625 0.01171875 C3.36402344 0.00785156 4.19289063 0.00398437 5.046875 0 C5.84480469 0.00128906 6.64273437 0.00257813 7.46484375 0.00390625 C8.5628833 0.00559814 8.5628833 0.00559814 9.68310547 0.00732422 C11.66015625 0.13671875 11.66015625 0.13671875 14.66015625 1.13671875 C14.97265625 3.94921875 14.97265625 3.94921875 14.66015625 7.13671875 C12.22265625 8.82421875 12.22265625 8.82421875 9.66015625 10.13671875 C9.33015625 11.12671875 9.00015625 12.11671875 8.66015625 13.13671875 C9.32015625 13.13671875 9.98015625 13.13671875 10.66015625 13.13671875 C11.98949204 18.57491063 11.98949204 18.57491063 10.59765625 20.94921875 C8.01946391 22.52940115 5.63895415 22.80574121 2.66015625 23.13671875 C2.99015625 24.12671875 3.32015625 25.11671875 3.66015625 26.13671875 C5.70204163 26.86938612 5.70204163 26.86938612 8.09765625 27.19921875 C12.45745355 27.93401605 12.45745355 27.93401605 14.66015625 30.13671875 C14.10460069 34.69227431 14.10460069 34.69227431 12.66015625 36.13671875 C11.32972 36.23509085 9.99422281 36.26750467 8.66015625 36.26953125 C7.85578125 36.27082031 7.05140625 36.27210938 6.22265625 36.2734375 C5.37703125 36.26957031 4.53140625 36.26570313 3.66015625 36.26171875 C2.81453125 36.26558594 1.96890625 36.26945312 1.09765625 36.2734375 C0.29328125 36.27214844 -0.51109375 36.27085937 -1.33984375 36.26953125 C-2.08234375 36.26840332 -2.82484375 36.26727539 -3.58984375 36.26611328 C-5.33984375 36.13671875 -5.33984375 36.13671875 -6.33984375 35.13671875 C-6.51212945 32.62963851 -6.6236438 30.14726432 -6.69140625 27.63671875 C-6.72613541 26.51040039 -6.72613541 26.51040039 -6.76156616 25.36132812 C-6.8092632 23.77090346 -6.85449018 22.18040313 -6.89746094 20.58984375 C-6.96456541 18.14685208 -7.04229893 15.70435809 -7.12109375 13.26171875 C-7.16600643 11.72007065 -7.21029822 10.17840431 -7.25390625 8.63671875 C-7.27780426 7.90130859 -7.30170227 7.16589844 -7.32632446 6.40820312 C-7.37006767 4.65158045 -7.36036751 2.89376612 -7.33984375 1.13671875 C-5.40940689 -0.79371811 -2.56459573 0.00415656 0 0 Z " fill="#FBFBFB" transform="translate(452.33984375,238.86328125)"/>
<path d="M0 0 C0 0.66 0 1.32 0 2 C0.66 2 1.32 2 2 2 C2 4.64 2 7.28 2 10 C0.7315625 9.7834375 0.7315625 9.7834375 -0.5625 9.5625 C-1.696875 9.376875 -2.83125 9.19125 -4 9 C-5.794375 8.6596875 -5.794375 8.6596875 -7.625 8.3125 C-11.16985066 7.98427309 -12.1378539 8.07434342 -15 10 C-16.67452567 12.8381791 -17.51882539 15.74660348 -18 19 C-16.93393936 22.44901971 -16.05751859 24.19774451 -13.1875 26.375 C-10.33116574 27.1910955 -7.95655724 27.25162189 -5 27 C-4.01 26.34 -3.02 25.68 -2 25 C-0.68 25 0.64 25 2 25 C2 27.64 2 30.28 2 33 C-3.87355415 36.19214899 -8.47743593 36.59560245 -15 35 C-19.91148832 32.36234887 -23.95601327 29.34897015 -26.25 24.1875 C-27.87450989 17.28333295 -27.04451718 12.54267332 -23.66015625 6.38671875 C-17.23746089 -2.84685034 -10.26333046 -2.63325017 0 0 Z " fill="#FAFAF9" transform="translate(212,240)"/>
<path d="M0 0 C3 1 3 1 4.10327148 2.91430664 C4.43915283 3.73793701 4.77503418 4.56156738 5.12109375 5.41015625 C5.49943359 6.31830078 5.87777344 7.22644531 6.26757812 8.16210938 C6.65365234 9.11923828 7.03972656 10.07636719 7.4375 11.0625 C8.20468197 12.92935258 8.97418393 14.79525358 9.74609375 16.66015625 C10.11943848 17.56523926 10.4927832 18.47032227 10.87744141 19.40283203 C11.9139982 21.80102498 13.0391818 24.11339818 14.23828125 26.43359375 C16.11639649 30.23563191 16.65307656 32.83691876 17 37 C13.6875 37.3125 13.6875 37.3125 10 37 C8.3125 35.0625 8.3125 35.0625 7 32 C6.33770611 30.45644975 5.67072542 28.91490518 5 27.375 C4.5359375 26.24191406 4.5359375 26.24191406 4.0625 25.0859375 C2.96686965 22.93495732 1.79100162 21.59765485 0 20 C-0.31453125 20.64066406 -0.6290625 21.28132813 -0.953125 21.94140625 C-3.48618386 27.06093185 -6.10862353 32.07395121 -9 37 C-11.31 37 -13.62 37 -16 37 C-15.53349675 30.91517506 -14.19205928 26.59414864 -11.3125 21.25 C-10.58835551 19.85816975 -9.86439918 18.4662416 -9.140625 17.07421875 C-8.78033203 16.39149902 -8.42003906 15.7087793 -8.04882812 15.00537109 C-6.50253058 12.04883291 -5.03598852 9.0559706 -3.5625 6.0625 C-1.12234043 1.12234043 -1.12234043 1.12234043 0 0 Z " fill="#F8F8F8" transform="translate(384,238)"/>
<path d="M0 0 C3 1 3 1 4.32421875 3.59765625 C4.77410156 4.74105469 5.22398437 5.88445312 5.6875 7.0625 C8.25348142 13.420441 11.18526141 19.51050024 14.37182617 25.58032227 C16.14369151 29.01802899 17.61726433 32.12209331 18 36 C17 37 17 37 13.625 37.375 C10 37 10 37 8.3125 35.125 C7.53097123 33.26421721 6.76747532 31.39543584 6.04296875 29.51171875 C5.69878906 28.62097656 5.35460937 27.73023438 5 26.8125 C4.690625 25.95269531 4.38125 25.09289062 4.0625 24.20703125 C3.07901816 21.6850049 3.07901816 21.6850049 0 20 C-2.64 25.61 -5.28 31.22 -8 37 C-10.64 37 -13.28 37 -16 37 C-16.53743512 32.70051902 -15.1086451 30.04377507 -13.16748047 26.28271484 C-11.97722231 23.95546395 -10.8543003 21.60561743 -9.74609375 19.23828125 C-9.36646484 18.42939453 -8.98683594 17.62050781 -8.59570312 16.78710938 C-7.81836634 15.12625659 -7.04234143 13.46478921 -6.26757812 11.80273438 C-4.35660368 7.73662349 -2.42004406 3.79629914 0 0 Z " fill="#F3F3F2" transform="translate(166,238)"/>
<path d="M0 0 C2.0859375 0.53125 2.0859375 0.53125 3.68359375 2.1015625 C5.49287979 5.23631436 6.70161449 8.505437 7.8984375 11.90625 C10.30005732 18.55324989 12.97350803 25.00719328 15.88671875 31.4453125 C17.42495303 35.40363525 18.68720629 38.72442219 17.30859375 42.8671875 C16.73431641 43.87652344 16.73431641 43.87652344 16.1484375 44.90625 C15.76816406 45.59460938 15.38789062 46.28296875 14.99609375 46.9921875 C14.69574219 47.50007813 14.39539063 48.00796875 14.0859375 48.53125 C11.0859375 47.53125 11.0859375 47.53125 10.05639648 45.79443359 C9.75548096 45.05531738 9.45456543 44.31620117 9.14453125 43.5546875 C8.80534668 42.73967773 8.46616211 41.92466797 8.11669922 41.08496094 C7.60647217 39.82087402 7.60647217 39.82087402 7.0859375 38.53125 C6.43237736 36.98118497 5.77745017 35.43169555 5.12109375 33.8828125 C4.46293897 32.30754334 3.80539734 30.73201788 3.1484375 29.15625 C0.51899547 22.86586287 -2.17937122 16.62643787 -5.1015625 10.46484375 C-5.9140625 8.53125 -5.9140625 8.53125 -5.9140625 6.53125 C-7.8940625 5.87125 -9.8740625 5.21125 -11.9140625 4.53125 C-8.08464607 0.57830401 -5.2475661 0.07163913 0 0 Z " fill="#F5F6F5" transform="translate(39.9140625,233.46875)"/>
<path d="M0 0 C0.9075 0.12375 1.815 0.2475 2.75 0.375 C4.41550232 6.39514569 2.0813738 10.17711319 -0.4375 15.625 C-0.83775391 16.54796875 -1.23800781 17.4709375 -1.65039062 18.421875 C-2.04806641 19.2984375 -2.44574219 20.175 -2.85546875 21.078125 C-3.21793701 21.87895508 -3.58040527 22.67978516 -3.95385742 23.50488281 C-5.25 25.375 -5.25 25.375 -7.3996582 26.14355469 C-8.010271 26.21993164 -8.62088379 26.29630859 -9.25 26.375 C-9.04375 27.096875 -8.8375 27.81875 -8.625 28.5625 C-8.19047789 31.82141585 -8.83319331 33.45804504 -10.25 36.375 C-11.57 36.375 -12.89 36.375 -14.25 36.375 C-15.95510593 32.43389435 -17.64818315 28.48788019 -19.32958984 24.53662109 C-19.95846687 23.05967754 -20.58908002 21.58347234 -21.22119141 20.10791016 C-22.19666029 17.82505208 -23.16186878 15.53808673 -24.125 13.25 C-24.4351001 12.52820557 -24.7452002 11.80641113 -25.06469727 11.06274414 C-26.52992325 7.5553827 -27.25 5.2340699 -27.25 1.375 C-24.94 1.375 -22.63 1.375 -20.25 1.375 C-17.99350744 5.10988424 -16.07524804 8.62980813 -14.625 12.75 C-13.69577953 16.43447732 -13.69577953 16.43447732 -11.25 17.375 C-10.92 16.055 -10.59 14.735 -10.25 13.375 C-9.59 13.375 -8.93 13.375 -8.25 13.375 C-8.1675 12.34375 -8.085 11.3125 -8 10.25 C-6.9736415 4.94714775 -5.83016048 0.67271083 0 0 Z " fill="#E7E9E5" transform="translate(296.25,237.625)"/>
<path d="M0 0 C5.10880829 -0.79274611 5.10880829 -0.79274611 8 0 C10.53166875 2.71704199 12.28204023 5.72025861 14 9 C14.3403125 8.3503125 14.680625 7.700625 15.03125 7.03125 C18.94293157 0.28984135 18.94293157 0.28984135 22.1796875 -0.59765625 C24.375 -0.5625 24.375 -0.5625 28 0 C27.43715408 4.29951747 25.90523828 7.04671518 23.5 10.625 C19.12985842 17.16230195 18.73064323 22.07154839 18.28125 29.84765625 C18 33 18 33 17 35 C14.69 35 12.38 35 10 35 C9.855625 34.05125 9.71125 33.1025 9.5625 32.125 C9.46066406 31.47789062 9.35882813 30.83078125 9.25390625 30.1640625 C9 28 9 28 9.02734375 25.8359375 C8.94341794 18.66627571 5.93014532 13.90282258 2.0625 8.08984375 C0.97537617 6.43492275 -0.01986627 4.7204475 -1 3 C-0.67 2.01 -0.34 1.02 0 0 Z " fill="#EFF0ED" transform="translate(341,240)"/>
<path d="M0 0 C7.39342549 0.60379641 13.08387204 1.54756069 18.43359375 6.953125 C21.68873424 11.20672504 23.07329459 15.18462555 22.93359375 20.55078125 C22.04392042 26.72230467 19.73870948 30.94668989 15 35 C10.80237575 37.54066731 6.78125856 37.30846829 2 37 C1.01 36.34 0.02 35.68 -1 35 C0.35544922 34.80083984 0.35544922 34.80083984 1.73828125 34.59765625 C2.91777344 34.42105469 4.09726562 34.24445313 5.3125 34.0625 C6.48425781 33.88847656 7.65601563 33.71445312 8.86328125 33.53515625 C12.01641403 33.07906969 12.01641403 33.07906969 15 32 C15 31.34 15 30.68 15 30 C15.66 30 16.32 30 17 30 C17.66 26.7 18.32 23.4 19 20 C18.34 20 17.68 20 17 20 C16.7525 20.886875 16.505 21.77375 16.25 22.6875 C14.59636976 27.06962015 12.78110094 30.01570738 8.625 32.3125 C5.65745265 33.08971478 3.05506987 33.14209627 0 33 C0 32.34 0 31.68 0 31 C-0.7425 30.814375 -1.485 30.62875 -2.25 30.4375 C-5.94594514 28.50552868 -7.71135352 25.88146531 -9 22 C-8.75 18.0625 -8.75 18.0625 -8 15 C-7.34 15.33 -6.68 15.66 -6 16 C-5.47385904 18.80158816 -5.16939588 21.60086306 -4.85546875 24.43359375 C-4.24965076 27.21243889 -4.24965076 27.21243889 -1.61328125 28.33203125 C3.28161716 29.58319363 7.54706624 29.54453358 12 27 C13.75119517 23.49760966 13.1812828 18.80693888 13 15 C12.34 14.01 11.68 13.02 11 12 C11 10.68 11 9.36 11 8 C10.01 7.67 9.02 7.34 8 7 C8.99 6.67 9.98 6.34 11 6 C9.91447634 4.68737429 9.91447634 4.68737429 7.27734375 4.90234375 C6.17519531 4.91394531 5.07304687 4.92554688 3.9375 4.9375 C2.83277344 4.94652344 1.72804688 4.95554688 0.58984375 4.96484375 C-0.26480469 4.97644531 -1.11945313 4.98804688 -2 5 C-2 4.01 -2 3.02 -2 2 C-1.34 2 -0.68 2 0 2 C0 1.34 0 0.68 0 0 Z " fill="#F7F7F4" transform="translate(316,238)"/>
<path d="M0 0 C2.33294775 -0.04241723 4.66702567 -0.04092937 7 0 C8 1 8 1 8.11352539 3.50024414 C8.10828857 4.58426514 8.10305176 5.66828613 8.09765625 6.78515625 C8.09443359 7.95498047 8.09121094 9.12480469 8.08789062 10.33007812 C8.07951172 11.56177734 8.07113281 12.79347656 8.0625 14.0625 C8.05798828 15.29806641 8.05347656 16.53363281 8.04882812 17.80664062 C8.03699608 20.87114117 8.02051173 23.93554721 8 27 C8.94875 27.103125 9.8975 27.20625 10.875 27.3125 C14 28 14 28 16 31 C16 32.32 16 33.64 16 35 C10.72 35 5.44 35 0 35 C-0.7161917 29.9866581 -1.08339396 26.12183215 -0.87890625 21.19140625 C-0.83056641 19.95068359 -0.78222656 18.70996094 -0.73242188 17.43164062 C-0.67634766 16.15482422 -0.62027344 14.87800781 -0.5625 13.5625 C-0.51029297 12.25861328 -0.45808594 10.95472656 -0.40429688 9.61132812 C-0.27519585 6.40727553 -0.14025405 3.20358054 0 0 Z " fill="#F8F8F8" transform="translate(128,240)"/>
<path d="M0 0 C3.3134464 1.40570453 5.46252683 3.67505367 7.0625 6.875 C7.05686711 8.33391758 7.01011397 9.79287975 6.9375 11.25 C6.80164723 14.84605904 6.80164723 14.84605904 8.5625 17.875 C11.02048458 21.15231278 10.29096325 24.9149703 10.0625 28.875 C8.7425 29.205 7.4225 29.535 6.0625 29.875 C6.0625 27.235 6.0625 24.595 6.0625 21.875 C5.753125 22.82375 5.44375 23.7725 5.125 24.75 C4.0625 27.875 4.0625 27.875 3.0625 29.875 C-2.13801239 31.06919173 -7.16325151 31.58040748 -11.9375 28.875 C-11.99145478 27.25036158 -12.03027195 25.62521459 -12.0625 24 C-12.09730469 22.64261719 -12.09730469 22.64261719 -12.1328125 21.2578125 C-11.9375 18.875 -11.9375 18.875 -9.9375 16.875 C-10.5975 15.885 -11.2575 14.895 -11.9375 13.875 C-12.1985788 10.85170744 -12.02565181 7.91623758 -11.9375 4.875 C-8.6375 4.875 -5.3375 4.875 -1.9375 4.875 C-2.9275 5.865 -3.9175 6.855 -4.9375 7.875 C-6.2575 7.875 -7.5775 7.875 -8.9375 7.875 C-8.9375 9.855 -8.9375 11.835 -8.9375 13.875 C-6.2975 12.885 -3.6575 11.895 -0.9375 10.875 C-0.9375 9.225 -0.9375 7.575 -0.9375 5.875 C0.625 7.0625 0.625 7.0625 2.0625 8.875 C1.75 11.5625 1.75 11.5625 1.0625 13.875 C2.0525 13.545 3.0425 13.215 4.0625 12.875 C4.0625 10.235 4.0625 7.595 4.0625 4.875 C3.4025 4.875 2.7425 4.875 2.0625 4.875 C2.0625 4.215 2.0625 3.555 2.0625 2.875 C-0.2475 2.545 -2.5575 2.215 -4.9375 1.875 C-1.9375 -0.125 -1.9375 -0.125 0 0 Z M-8.9375 20.875 C-8.9375 22.855 -8.9375 24.835 -8.9375 26.875 C-7.47926788 26.9020043 -6.02089325 26.92139787 -4.5625 26.9375 C-3.34433594 26.95490234 -3.34433594 26.95490234 -2.1015625 26.97265625 C0.11187142 27.01966334 0.11187142 27.01966334 2.0625 25.875 C2.0625 24.555 2.0625 23.235 2.0625 21.875 C-0.34295638 20.67227181 -1.88746953 20.77428528 -4.5625 20.8125 C-5.37976563 20.82152344 -6.19703125 20.83054687 -7.0390625 20.83984375 C-7.66554688 20.85144531 -8.29203125 20.86304688 -8.9375 20.875 Z " fill="#F5F7F6" transform="translate(109.9375,240.125)"/>
<path d="M0 0 C1.5625 2.0625 1.5625 2.0625 1.4375 4.1875 C0.5625 6.0625 0.5625 6.0625 -1.4375 8.0625 C-5.4375 8.0625 -5.4375 8.0625 -7.0625 6.625 C-7.743125 5.8515625 -7.743125 5.8515625 -8.4375 5.0625 C-11.22665389 3.66792306 -13.34023264 3.8803078 -16.4375 4.0625 C-18.11836226 4.69251928 -19.78816409 5.35404162 -21.4375 6.0625 C-21.63282961 7.8324868 -21.81848882 9.60354279 -22 11.375 C-22.10441406 12.36113281 -22.20882813 13.34726562 -22.31640625 14.36328125 C-22.60352527 17.16180347 -22.60352527 17.16180347 -21.4375 20.0625 C-22.4275 20.3925 -23.4175 20.7225 -24.4375 21.0625 C-26.18377478 18.44308783 -26.82472388 17.02425123 -27.4375 14.0625 C-28.0975 15.3825 -28.7575 16.7025 -29.4375 18.0625 C-30.76780805 12.74126782 -31.45766135 7.42497892 -29.25 2.3125 C-26.65151438 -0.91320629 -24.17350996 -3.35883001 -20.1875 -4.6875 C-12.04177412 -5.42802053 -6.69159747 -5.31896209 0 0 Z " fill="#F0F1F0" transform="translate(435.4375,243.9375)"/>
<path d="M0 0 C3.94512702 3.3381844 4.69633431 7.13298144 6 12 C6.556875 12.804375 7.11375 13.60875 7.6875 14.4375 C9.57914148 18.13070479 9.07018155 21.06807372 8 25 C6.4375 28 6.4375 28 5 30 C3.68 29.67 2.36 29.34 1 29 C1 27.35 1 25.7 1 24 C0.34 24 -0.32 24 -1 24 C-2.4606285 21.35261084 -3 20.10551666 -3 17 C-3.99 17 -4.98 17 -6 17 C-5.66162109 15.90751953 -5.66162109 15.90751953 -5.31640625 14.79296875 C-4.91051937 11.21014016 -5.80990133 10.15412272 -7.9375 7.3125 C-11 3.16173121 -11 3.16173121 -11 1 C-7.52606073 -0.73696963 -3.7904199 -0.58781913 0 0 Z " fill="#EAEAEA" transform="translate(57,233)"/>
<path d="M0 0 C0.83660156 0.00386719 1.67320312 0.00773438 2.53515625 0.01171875 C3.36402344 0.00785156 4.19289063 0.00398437 5.046875 0 C5.84480469 0.00128906 6.64273437 0.00257813 7.46484375 0.00390625 C8.5628833 0.00559814 8.5628833 0.00559814 9.68310547 0.00732422 C11.66015625 0.13671875 11.66015625 0.13671875 14.66015625 1.13671875 C14.97265625 3.94921875 14.97265625 3.94921875 14.66015625 7.13671875 C12.22265625 8.82421875 12.22265625 8.82421875 9.66015625 10.13671875 C9.33015625 11.12671875 9.00015625 12.11671875 8.66015625 13.13671875 C9.32015625 13.46671875 9.98015625 13.79671875 10.66015625 14.13671875 C8.66015625 16.13671875 8.66015625 16.13671875 6.53125 16.3671875 C5.72816406 16.35300781 4.92507813 16.33882812 4.09765625 16.32421875 C3.29199219 16.31777344 2.48632812 16.31132812 1.65625 16.3046875 C-0.33984375 16.13671875 -0.33984375 16.13671875 -1.33984375 15.13671875 C-1.48099536 12.46613024 -1.38231482 9.81239637 -1.33984375 7.13671875 C0.31015625 6.47671875 1.96015625 5.81671875 3.66015625 5.13671875 C1.35015625 4.80671875 -0.95984375 4.47671875 -3.33984375 4.13671875 C-3.33984375 13.37671875 -3.33984375 22.61671875 -3.33984375 32.13671875 C-3.66984375 32.13671875 -3.99984375 32.13671875 -4.33984375 32.13671875 C-4.40042969 31.13769531 -4.46101563 30.13867188 -4.5234375 29.109375 C-4.60722656 27.81902344 -4.69101562 26.52867187 -4.77734375 25.19921875 C-4.85855469 23.91144531 -4.93976563 22.62367188 -5.0234375 21.296875 C-4.98903563 18.27647918 -4.98903563 18.27647918 -6.33984375 17.13671875 C-6.60359958 14.46399299 -6.80832832 11.81589459 -6.96484375 9.13671875 C-7.01640625 8.38648438 -7.06796875 7.63625 -7.12109375 6.86328125 C-7.23810892 4.95662226 -7.29377665 3.04640953 -7.33984375 1.13671875 C-5.40940689 -0.79371811 -2.56459573 0.00415656 0 0 Z " fill="#F4F5F3" transform="translate(452.33984375,238.86328125)"/>
<path d="M0 0 C0.66 0 1.32 0 2 0 C2.48919922 1.19496094 2.48919922 1.19496094 2.98828125 2.4140625 C5.70651959 9.10763819 5.70651959 9.10763819 8.8125 15.625 C10 18 10 18 10 20 C9.34 20 8.68 20 8 20 C8 20.66 8 21.32 8 22 C7.68521554 23.33783393 7.35412344 24.67203709 7 26 C6.66226563 25.28972656 6.32453125 24.57945312 5.9765625 23.84765625 C5.53054687 22.92855469 5.08453125 22.00945312 4.625 21.0625 C4.18414062 20.14597656 3.74328125 19.22945313 3.2890625 18.28515625 C2.20800838 15.87096198 2.20800838 15.87096198 0 15 C-2.64 20.61 -5.28 26.22 -8 32 C-10.64 32 -13.28 32 -16 32 C-16 31.34 -16 30.68 -16 30 C-15.34 30 -14.68 30 -14 30 C-13.67 29.01 -13.34 28.02 -13 27 C-12.34 27 -11.68 27 -11 27 C-10.91621094 26.18789063 -10.83242187 25.37578125 -10.74609375 24.5390625 C-9.81151366 20.10592342 -8.04850263 16.42433634 -6.0625 12.375 C-5.70220703 11.62476563 -5.34191406 10.87453125 -4.97070312 10.1015625 C-3.3427187 6.71967221 -1.68226544 3.3552031 0 0 Z " fill="#F2F2F3" transform="translate(166,243)"/>
<path d="M0 0 C3.71696081 2.47797387 4.39943989 4.57206374 6.1875 8.625 C6.98220703 10.40777344 6.98220703 10.40777344 7.79296875 12.2265625 C8.19128906 13.14179688 8.58960938 14.05703125 9 15 C9.33 14.01 9.66 13.02 10 12 C10.99088927 14.01511121 11.96718737 16.03740047 12.9375 18.0625 C13.48277344 19.18785156 14.02804687 20.31320312 14.58984375 21.47265625 C16.01603277 25.04010413 16.61664169 28.19068005 17 32 C13.6875 32.3125 13.6875 32.3125 10 32 C8.3125 30.0625 8.3125 30.0625 7 27 C6.33770611 25.45644975 5.67072542 23.91490518 5 22.375 C4.690625 21.61960937 4.38125 20.86421875 4.0625 20.0859375 C3.10745402 17.93529188 3.10745402 17.93529188 1.375 16.4140625 C0 15 0 15 0 12 C0.66 12 1.32 12 2 12 C2 12.66 2 13.32 2 14 C2.66 14 3.32 14 4 14 C3.34 12.02 2.68 10.04 2 8 C0.00136244 8.57944932 0.00136244 8.57944932 -2 10 C-3.29231642 13.04199472 -3.29231642 13.04199472 -4 16 C-4.66 16 -5.32 16 -6 16 C-5.11223998 12.30099992 -4.05418136 8.65449539 -3 5 C-2.34 5 -1.68 5 -1 5 C-0.67 3.35 -0.34 1.7 0 0 Z " fill="#FBFBFB" transform="translate(384,243)"/>
<path d="M0 0 C2.31 0.33 4.62 0.66 7 1 C4 3 4 3 2 3 C2.14168137 4.43791516 2.28851043 5.8753237 2.4375 7.3125 C2.51871094 8.11300781 2.59992188 8.91351563 2.68359375 9.73828125 C2.95265693 12.16087179 2.95265693 12.16087179 4 15 C6.64 15 9.28 15 12 15 C12 15.33 12 15.66 12 16 C7.05 16.495 7.05 16.495 2 17 C2 20.3 2 23.6 2 27 C7.08086796 27.84681133 11.84828377 28.09038099 17 28 C17.99 25.03 18.98 22.06 20 19 C20.33 19 20.66 19 21 19 C21 23 21 27 21 31 C18.08175756 32.66674321 16.02405621 33.2432008 12.671875 33.1953125 C11.87265625 33.18886719 11.0734375 33.18242187 10.25 33.17578125 C9.425 33.15902344 8.6 33.14226562 7.75 33.125 C6.90953125 33.11597656 6.0690625 33.10695313 5.203125 33.09765625 C3.13529396 33.07415817 1.06761005 33.03828908 -1 33 C-0.67 32.34 -0.34 31.68 0 31 C0.08586809 28.67583704 0.10711043 26.34916693 0.09765625 24.0234375 C0.0962413 23.33819 0.09482635 22.6529425 0.09336853 21.94692993 C0.08776675 19.75624239 0.07521406 17.5656567 0.0625 15.375 C0.05748522 13.89062648 0.05292228 12.40625135 0.04882812 10.921875 C0.03779677 7.28121685 0.02053099 3.64061836 0 0 Z " fill="#FAFAFA" transform="translate(96,242)"/>
<path d="M0 0 C1 3 1 3 -0.5 6.25 C-2.28873187 10.13926103 -2.08549112 12.81310569 -1 17 C0.73327733 20.7141657 2.13995876 22.53584643 6 24 C6 24.66 6 25.32 6 26 C12.97485961 24.56926208 12.97485961 24.56926208 19 21 C20.55677423 18.4223902 21.82259692 15.76919943 23 13 C23.66 13 24.32 13 25 13 C25.25 19.625 25.25 19.625 23 23 C22.34 23 21.68 23 21 23 C21 23.66 21 24.32 21 25 C16.9811485 26.81242323 13.38889325 28.33501617 9 29 C11.31 29 13.62 29 16 29 C11.81048275 31.7930115 8.79124832 30.91461658 4 30 C0.9375 28.9375 0.9375 28.9375 -1 28 C-1 26.68 -1 25.36 -1 24 C-1.33 23.01 -1.66 22.02 -2 21 C-2.66 21 -3.32 21 -4 21 C-5.33827901 18.32344199 -5.20578556 16.17565948 -5.25 13.1875 C-5.27578125 12.14980469 -5.3015625 11.11210937 -5.328125 10.04296875 C-4.95782291 6.60885767 -4.08186391 4.73370965 -2 2 C-1.34 2 -0.68 2 0 2 C0 1.34 0 0.68 0 0 Z " fill="#F8F8F7" transform="translate(310,245)"/>
<path d="M0 0 C1.32 0 2.64 0 4 0 C4.33 2.64 4.66 5.28 5 8 C5.66 8 6.32 8 7 8 C7 9.65 7 11.3 7 13 C7.66 13 8.32 13 9 13 C10.65 16.96 12.3 20.92 14 25 C14.66 25 15.32 25 16 25 C15.34 27.31 14.68 29.62 14 32 C12.68 32 11.36 32 10 32 C8.24625331 27.94299933 6.50673606 23.88032544 4.77832031 19.8125 C4.10449473 18.24334029 3.40961149 16.68325472 2.7109375 15.125 C0.39264937 9.78793381 -0.43133541 5.82302807 0 0 Z " fill="#F7F8F6" transform="translate(272,242)"/>
<path d="M0 0 C5.97031739 0.29123499 8.894534 3.02814384 13 7 C12.42655063 9.86724686 12.1385485 10.8614515 10 13 C6 13 6 13 4.375 11.5625 C3.694375 10.7890625 3.694375 10.7890625 3 10 C0.26094655 8.63047327 -1.97087332 8.87378639 -5 9 C-5.99 9.495 -5.99 9.495 -7 10 C-7 9.01 -7 8.02 -7 7 C-8.97536745 7.34786708 -8.97536745 7.34786708 -11 8 C-11.33 8.66 -11.66 9.32 -12 10 C-12.33 8.68 -12.66 7.36 -13 6 C-8.60748167 3.97944157 -4.84659077 2.59104765 0 2 C0 1.34 0 0.68 0 0 Z " fill="#EAECEB" transform="translate(424,239)"/>
<path d="M0 0 C1.18771723 3.42943519 0.80226223 5.37784675 -0.4375 8.75 C-0.72496094 9.54921875 -1.01242187 10.3484375 -1.30859375 11.171875 C-1.53675781 11.77515625 -1.76492188 12.3784375 -2 13 C-3.32 12.67 -4.64 12.34 -6 12 C-6 12.66 -6 13.32 -6 14 C-7.98 14.99 -9.96 15.98 -12 17 C-11.34 15.35 -10.68 13.7 -10 12 C-9.34 12 -8.68 12 -8 12 C-8 11.34 -8 10.68 -8 10 C-7.34 10 -6.68 10 -6 10 C-6 8.68 -6 7.36 -6 6 C-7.423125 6.2784375 -7.423125 6.2784375 -8.875 6.5625 C-12 7 -12 7 -14 6 C-14.625 2.9375 -14.625 2.9375 -15 0 C-9.0410001 -1.88178944 -5.85789639 -2.19671115 0 0 Z " fill="#FBFBFB" transform="translate(438,256)"/>
<path d="M0 0 C2.31 0 4.62 0 7 0 C8.76988265 1.76988265 8.13029068 4.31965418 8.1328125 6.71484375 C8.13474609 8.45604492 8.13474609 8.45604492 8.13671875 10.23242188 C8.13285156 11.45509766 8.12898437 12.67777344 8.125 13.9375 C8.12886719 15.15630859 8.13273438 16.37511719 8.13671875 17.63085938 C8.13542969 18.79294922 8.13414062 19.95503906 8.1328125 21.15234375 C8.13168457 22.22476318 8.13055664 23.29718262 8.12939453 24.40209961 C8 27 8 27 7 29 C6.34 29 5.68 29 5 29 C5 20.09 5 11.18 5 2 C4.01 2 3.02 2 2 2 C2 9.26 2 16.52 2 24 C1.34 24 0.68 24 0 24 C0 16.08 0 8.16 0 0 Z " fill="#D2D3D1" transform="translate(128,240)"/>
<path d="M0 0 C0.99 0.33 1.98 0.66 3 1 C2.34 2.65 1.68 4.3 1 6 C0.34 6 -0.32 6 -1 6 C-1.1546875 6.804375 -1.1546875 6.804375 -1.3125 7.625 C-2 10 -2 10 -3.5 12.6875 C-5.19099078 16.4217713 -5.49510557 19.29623801 -5.6875 23.375 C-5.75324219 24.62023437 -5.81898438 25.86546875 -5.88671875 27.1484375 C-5.92410156 28.08945312 -5.96148437 29.03046875 -6 30 C-5.34 30 -4.68 30 -4 30 C-4 30.66 -4 31.32 -4 32 C-6.31 32 -8.62 32 -11 32 C-11.33 29.69 -11.66 27.38 -12 25 C-11.34 25.33 -10.68 25.66 -10 26 C-9.94589313 24.22950311 -9.90715881 22.45853151 -9.875 20.6875 C-9.85179687 19.70136719 -9.82859375 18.71523438 -9.8046875 17.69921875 C-9.79317361 14.77593473 -9.79317361 14.77593473 -12 12 C-11.67 11.01 -11.34 10.02 -11 9 C-9.35 9.33 -7.7 9.66 -6 10 C-4.68 7.36 -3.36 4.72 -2 2 C-1.34 2 -0.68 2 0 2 C0 1.34 0 0.68 0 0 Z " fill="#F8F8F7" transform="translate(362,243)"/>
<path d="M0 0 C3.18207231 2.30700243 4.73315367 3.64934704 5.5078125 7.5703125 C5.69387564 12.12265734 5.68350651 15.86209161 2.8125 19.5625 C-1.77150006 23.53530005 -4.98148964 24.27993071 -11 24 C-11 23.34 -11 22.68 -11 22 C-11.7425 21.814375 -12.485 21.62875 -13.25 21.4375 C-16.94594514 19.50552868 -18.71135352 16.88146531 -20 13 C-19.75 9.0625 -19.75 9.0625 -19 6 C-18.34 6.33 -17.68 6.66 -17 7 C-16.47385904 9.80158816 -16.16939588 12.60086306 -15.85546875 15.43359375 C-15.24965076 18.21243889 -15.24965076 18.21243889 -12.61328125 19.33203125 C-7.71838284 20.58319363 -3.45293376 20.54453358 1 18 C2.75119517 14.49760966 2.1812828 9.80693888 2 6 C1.34 5.01 0.68 4.02 0 3 C0 2.01 0 1.02 0 0 Z " fill="#D1D1D0" transform="translate(327,247)"/>
<path d="M0 0 C0.99 0.33 1.98 0.66 3 1 C3.765625 2.7421875 3.765625 2.7421875 4.25 4.875 C4.42015625 5.57367188 4.5903125 6.27234375 4.765625 6.9921875 C5 9 5 9 4 12 C3.34 9.69 2.68 7.38 2 5 C-0.68458293 6.34229146 -0.73491916 7.52102768 -1.75 10.3125 C-3.73408436 15.51604201 -6.15850769 20.40037678 -8.73046875 25.3359375 C-9.80786906 27.5968206 -10.51937488 29.55633977 -11 32 C-11.66 32 -12.32 32 -13 32 C-13.33 33.32 -13.66 34.64 -14 36 C-14.66 35.67 -15.32 35.34 -16 35 C-13.50141841 23.00680837 -6.33367104 10.33191765 0 0 Z " fill="#E4E4E4" transform="translate(166,238)"/>
<path d="M0 0 C0 0.66 0 1.32 0 2 C0.66 2 1.32 2 2 2 C2 3.98 2 5.96 2 8 C-2.55384615 8.36923077 -2.55384615 8.36923077 -4.8125 6.5 C-5.204375 6.005 -5.59625 5.51 -6 5 C-4.68 5.33 -3.36 5.66 -2 6 C-1.67 5.01 -1.34 4.02 -1 3 C-7.40629424 2.79147686 -12.92972642 2.8416805 -19 5 C-19 5.66 -19 6.32 -19 7 C-19.66 7 -20.32 7 -21 7 C-22.58255197 11.32564205 -23.45144652 15.428721 -24 20 C-26.29794925 16.55307613 -26.12027201 14.97839626 -25.45703125 10.984375 C-24.14363814 5.28177929 -20.52980553 2.12462988 -15.76171875 -0.97265625 C-10.50193066 -2.92926766 -5.28466437 -1.35587988 0 0 Z " fill="#E6E7E3" transform="translate(212,240)"/>
<path d="M0 0 C0.87527344 -0.01417969 1.75054687 -0.02835937 2.65234375 -0.04296875 C5.0625 0.1875 5.0625 0.1875 8.0625 2.1875 C8.0625 2.8475 8.0625 3.5075 8.0625 4.1875 C8.7225 4.1875 9.3825 4.1875 10.0625 4.1875 C10.26336443 7.90349191 10.2144437 8.95958445 8.0625 12.1875 C2.93264347 13.54032942 -2.21748018 13.8621779 -6.9375 11.1875 C-6.9375 7.8875 -6.9375 4.5875 -6.9375 1.1875 C-4.47380468 -0.04434766 -2.7480499 0.02017658 0 0 Z M-3.9375 3.1875 C-3.9375 5.1675 -3.9375 7.1475 -3.9375 9.1875 C-2.47926788 9.2145043 -1.02089325 9.23389787 0.4375 9.25 C1.65566406 9.26740234 1.65566406 9.26740234 2.8984375 9.28515625 C5.11187142 9.33216334 5.11187142 9.33216334 7.0625 8.1875 C7.0625 6.8675 7.0625 5.5475 7.0625 4.1875 C4.65704362 2.98477181 3.11253047 3.08678528 0.4375 3.125 C-0.37976563 3.13402344 -1.19703125 3.14304687 -2.0390625 3.15234375 C-2.66554688 3.16394531 -3.29203125 3.17554688 -3.9375 3.1875 Z " fill="#E1E1E1" transform="translate(104.9375,257.8125)"/>
<path d="M0 0 C0.66 0 1.32 0 2 0 C2.32613281 0.79664063 2.65226563 1.59328125 2.98828125 2.4140625 C5.70651959 9.10763819 5.70651959 9.10763819 8.8125 15.625 C10 18 10 18 10 20 C9.34 20 8.68 20 8 20 C8 20.66 8 21.32 8 22 C7.68521554 23.33783393 7.35412344 24.67203709 7 26 C6.66226563 25.31292969 6.32453125 24.62585938 5.9765625 23.91796875 C5.53054687 23.01691406 5.08453125 22.11585938 4.625 21.1875 C4.18414062 20.29417969 3.74328125 19.40085937 3.2890625 18.48046875 C1.98133095 15.85443619 1.98133095 15.85443619 0 13 C0.99 11.35 1.98 9.7 3 8 C1.060491 8.19188156 1.060491 8.19188156 -1 9 C-2.34231442 10.83983424 -2.34231442 10.83983424 -3.25 13.0625 C-3.58515625 13.79597656 -3.9203125 14.52945312 -4.265625 15.28515625 C-4.50796875 15.85105469 -4.7503125 16.41695313 -5 17 C-5.66 17 -6.32 17 -7 17 C-5.1668733 11.00067626 -2.92678249 5.55079437 0 0 Z " fill="#FBFBFA" transform="translate(166,243)"/>
<path d="M0 0 C2.31 0 4.62 0 7 0 C10.66051342 6.05878083 14 11.79280763 14 19 C17.01031744 19.93423645 17.86650268 20.04449911 21 19 C20.67 20.98 20.34 22.96 20 25 C19.34 25 18.68 25 18 25 C17.67 26.32 17.34 27.64 17 29 C12 21.04545455 12 21.04545455 12 16 C11.34 16 10.68 16 10 16 C10 14.35 10 12.7 10 11 C9.34 11 8.68 11 8 11 C7.67 8.36 7.34 5.72 7 3 C5.68 3 4.36 3 3 3 C3.33 4.65 3.66 6.3 4 8 C3.34 8 2.68 8 2 8 C0.23537317 4.91190305 0 3.76687864 0 0 Z " fill="#E1E4E0" transform="translate(269,239)"/>
<path d="M0 0 C2.64 0 5.28 0 8 0 C7.43715408 4.29951747 5.90523828 7.04671518 3.5 10.625 C-0.11307262 16.02980126 -1.14490536 19.68495484 -1.5625 26.1875 C-1.64628906 27.45980469 -1.73007812 28.73210937 -1.81640625 30.04296875 C-1.87699219 31.01878906 -1.93757813 31.99460937 -2 33 C-2.99 33 -3.98 33 -5 33 C-5.6053938 23.66348234 -5.13668843 16.96186707 0 9 C0.66 9 1.32 9 2 9 C2.33 7.35 2.66 5.7 3 4 C2.34 3.67 1.68 3.34 1 3 C1 3.66 1 4.32 1 5 C0.34 5 -0.32 5 -1 5 C-0.67 3.35 -0.34 1.7 0 0 Z " fill="#D6DAD4" transform="translate(361,240)"/>
<path d="M0 0 C1.2065625 0.0309375 1.2065625 0.0309375 2.4375 0.0625 C2.80029456 1.35176992 3.15246698 2.64403272 3.5 3.9375 C3.69722656 4.65679687 3.89445312 5.37609375 4.09765625 6.1171875 C4.4375 8.0625 4.4375 8.0625 3.4375 10.0625 C4.0975 10.0625 4.7575 10.0625 5.4375 10.0625 C5.4375 9.0725 5.4375 8.0825 5.4375 7.0625 C6.0975 7.0625 6.7575 7.0625 7.4375 7.0625 C6.83051257 11.19001449 5.39939209 14.3946148 3.4375 18.0625 C0.4375 17.0625 0.4375 17.0625 -0.6953125 15.13671875 C-1.02273437 14.34910156 -1.35015625 13.56148438 -1.6875 12.75 C-2.18636719 11.58017578 -2.18636719 11.58017578 -2.6953125 10.38671875 C-3.47800386 8.28896488 -4.07309398 6.24485134 -4.5625 4.0625 C-3.0775 5.0525 -3.0775 5.0525 -1.5625 6.0625 C-2.2225 4.4125 -2.8825 2.7625 -3.5625 1.0625 C-2.5625 0.0625 -2.5625 0.0625 0 0 Z " fill="#FBFBFB" transform="translate(50.5625,263.9375)"/>
<path d="M0 0 C0.33 0 0.66 0 1 0 C1 10.23 1 20.46 1 31 C2.32 31.33 3.64 31.66 5 32 C1.535 32.495 1.535 32.495 -2 33 C-2.04938149 28.62176083 -2.0857104 24.24366854 -2.10986328 19.86523438 C-2.11993043 18.3752968 -2.13358518 16.88537903 -2.15087891 15.39550781 C-2.17509653 13.25580972 -2.18647564 11.11637247 -2.1953125 8.9765625 C-2.21102295 7.04417725 -2.21102295 7.04417725 -2.22705078 5.07275391 C-2 2 -2 2 0 0 Z " fill="#D7D7D7" transform="translate(95,242)"/>
<path d="M0 0 C0 0.66 0 1.32 0 2 C2.64 2.66 5.28 3.32 8 4 C8 4.66 8 5.32 8 6 C6.7315625 5.7834375 6.7315625 5.7834375 5.4375 5.5625 C4.303125 5.376875 3.16875 5.19125 2 5 C0.205625 4.6596875 0.205625 4.6596875 -1.625 4.3125 C-5.16319866 3.98488901 -6.14887016 4.06404764 -9 6 C-11.25456237 10.281986 -12.46814539 15.1624976 -12 20 C-12.66 20 -13.32 20 -14 20 C-15.91259709 15.50539683 -16.37358468 12.92809134 -14.5625 8.3125 C-11.58529815 2.41844498 -6.86098746 -0.83163484 0 0 Z " fill="#EEEFED" transform="translate(206,244)"/>
<path d="M0 0 C3 1 3 1 4.5703125 3.66015625 C7.39795326 9.84828465 9.7319118 15.16375093 10 22 C6.7892581 19.32920269 5.49022748 16.07806613 3.8125 12.3125 C3.28269531 11.13300781 2.75289063 9.95351562 2.20703125 8.73828125 C1.80871094 7.83464844 1.41039062 6.93101562 1 6 C0.34 7.32 -0.32 8.64 -1 10 C-1.66 10 -2.32 10 -3 10 C-3.33 10.99 -3.66 11.98 -4 13 C-4.66 12.01 -5.32 11.02 -6 10 C-5.18957164 8.51969728 -4.37659652 7.04078858 -3.5625 5.5625 C-2.88380859 4.32693359 -2.88380859 4.32693359 -2.19140625 3.06640625 C-1 1 -1 1 0 0 Z " fill="#E1E3E2" transform="translate(384,238)"/>
<path d="M0 0 C2.5625 3 2.5625 3 4 6 C2 8 0 10 -2 12 C-2.33 10.35 -2.66 8.7 -3 7 C-3.66 7 -4.32 7 -5 7 C-5.66 6.01 -6.32 5.02 -7 4 C-7.99 4 -8.98 4 -10 4 C-10.33 3.01 -10.66 2.02 -11 1 C-7.52984096 -0.73507952 -3.77380913 -0.74403697 0 0 Z " fill="#F9F9F9" transform="translate(57,233)"/>
<path d="M0 0 C8.63378774 0.70509267 14.24172028 2.31092986 20 9 C21.4783226 11.95664519 21.06032783 14.74229737 21 18 C19 15 19 15 19 12 C18.34 12 17.68 12 17 12 C17 11.01 17 10.02 17 9 C16.34 9 15.68 9 15 9 C15 8.34 15 7.68 15 7 C11.07142246 5.14868517 8.01224888 4.77995057 3.6875 4.875 C2.61886719 4.89304688 1.55023438 4.91109375 0.44921875 4.9296875 C-0.76314453 4.96449219 -0.76314453 4.96449219 -2 5 C-2 4.01 -2 3.02 -2 2 C-1.34 2 -0.68 2 0 2 C0 1.34 0 0.68 0 0 Z " fill="#CDCDCA" transform="translate(316,238)"/>
<path d="M0 0 C2.47424288 1.41385307 3.6733619 2.85925562 5.1875 5.25 C4.1975 5.745 4.1975 5.745 3.1875 6.25 C2.1975 5.59 1.2075 4.93 0.1875 4.25 C0.1875 3.59 0.1875 2.93 0.1875 2.25 C-1.1325 2.25 -2.4525 2.25 -3.8125 2.25 C-2.8225 3.735 -2.8225 3.735 -1.8125 5.25 C-3.83072917 5.21744792 -5.84895833 5.18489583 -7.8671875 5.15234375 C-9.89435404 5.12350758 -9.89435404 5.12350758 -11.8125 6.25 C-11.8125 5.26 -11.8125 4.27 -11.8125 3.25 C-13.78786745 3.59786708 -13.78786745 3.59786708 -15.8125 4.25 C-16.1425 4.91 -16.4725 5.57 -16.8125 6.25 C-17.1425 4.93 -17.4725 3.61 -17.8125 2.25 C-11.62957443 -0.84146279 -6.88043464 -1.83478257 0 0 Z " fill="#F7F8F6" transform="translate(428.8125,242.75)"/>
<path d="M0 0 C1.85625 0.1546875 1.85625 0.1546875 3.75 0.3125 C4.08 1.3025 4.41 2.2925 4.75 3.3125 C4.09 3.3125 3.43 3.3125 2.75 3.3125 C2.75 3.9725 2.75 4.6325 2.75 5.3125 C2.09 5.3125 1.43 5.3125 0.75 5.3125 C0.75 5.9725 0.75 6.6325 0.75 7.3125 C-0.57 7.3125 -1.89 7.3125 -3.25 7.3125 C-3.25 7.9725 -3.25 8.6325 -3.25 9.3125 C-5.23 10.3025 -5.23 10.3025 -7.25 11.3125 C-7.25 10.6525 -7.25 9.9925 -7.25 9.3125 C-7.91 9.3125 -8.57 9.3125 -9.25 9.3125 C-8.41993466 3.70955898 -5.83992117 -0.01033614 0 0 Z " fill="#F3F4F0" transform="translate(244.25,239.6875)"/>
<path d="M0 0 C0.66 0.33 1.32 0.66 2 1 C2 2.32 2 3.64 2 5 C2.66 5 3.32 5 4 5 C4.98188561 7.58232914 5.96059589 10.16578683 6.9375 12.75 C7.21529297 13.47960937 7.49308594 14.20921875 7.77929688 14.9609375 C8.18051758 16.02441406 8.18051758 16.02441406 8.58984375 17.109375 C8.83597412 17.75874023 9.08210449 18.40810547 9.33569336 19.07714844 C10 21 10 21 10.46313477 23.18066406 C10.72888306 24.08123535 10.72888306 24.08123535 11 25 C11.66 25.33 12.32 25.66 13 26 C12.34 26.66 11.68 27.32 11 28 C7.13260043 22.70023022 4.622148 16.99348114 2 11 C1.66355469 10.29875 1.32710937 9.5975 0.98046875 8.875 C-0.26219165 6.24214875 -1.0634732 4.49509098 -0.6875 1.5625 C-0.460625 1.046875 -0.23375 0.53125 0 0 Z " fill="#E4E4E4" transform="translate(38,245)"/>
<path d="M0 0 C3.34058773 1.67029386 3.81316995 5.45471102 5 8.8125 C5.51882035 10.25723489 6.03959792 11.70126868 6.5625 13.14453125 C6.92915771 14.16135986 6.92915771 14.16135986 7.30322266 15.19873047 C8.00722961 17.12016851 8.00722961 17.12016851 9.2109375 19.30859375 C10.45538592 21.97614903 9.63213763 24.21859442 9 27 C8.34 27 7.68 27 7 27 C6.67 23.7 6.34 20.4 6 17 C5.34 17 4.68 17 4 17 C3.13227971 14.92227529 2.28126381 12.83756823 1.4375 10.75 C0.96183594 9.58984375 0.48617187 8.4296875 -0.00390625 7.234375 C-0.95770524 4.13733356 -1.20983356 2.92678299 0 0 Z " fill="#E3E3E4" transform="translate(47,247)"/>
<path d="M0 0 C4.75 1.875 4.75 1.875 7 3 C11.05142119 3.25860135 12.54337669 3.30441554 16 1 C17.32 1 18.64 1 20 1 C19.67 3.31 19.34 5.62 19 8 C18.34 8 17.68 8 17 8 C16.67 7.34 16.34 6.68 16 6 C15.41992188 6.10699219 14.83984375 6.21398437 14.2421875 6.32421875 C8.95403223 7.13576733 5.54444942 7.29472583 1 4 C0.125 1.8125 0.125 1.8125 0 0 Z " fill="#F0F0EF" transform="translate(194,264)"/>
<path d="M0 0 C0.99 0 1.98 0 3 0 C3.268125 0.886875 3.53625 1.77375 3.8125 2.6875 C4.82416618 5.97900059 4.82416618 5.97900059 6.6875 8.375 C8.6499709 12.29994181 7.89556061 14.72886479 7 19 C6.34 19.99 5.68 20.98 5 22 C4.01 21.67 3.02 21.34 2 21 C2.33 20.46375 2.66 19.9275 3 19.375 C4.25443192 16.3957242 4.27292239 14.20683803 4 11 C2.27773504 7.75150023 2.27773504 7.75150023 -1 7 C-0.67 4.69 -0.34 2.38 0 0 Z " fill="#E3E4E1" transform="translate(58,239)"/>
<path d="M0 0 C2.01822917 0.06510417 4.03645833 0.13020833 6.0546875 0.1953125 C7.0546875 2.1953125 7.0546875 2.1953125 6.49609375 4.140625 C6.20605469 4.85992187 5.91601562 5.57921875 5.6171875 6.3203125 C5.32972656 7.04476562 5.04226562 7.76921875 4.74609375 8.515625 C4.51792969 9.06992188 4.28976563 9.62421875 4.0546875 10.1953125 C2.7346875 9.8653125 1.4146875 9.5353125 0.0546875 9.1953125 C0.0546875 7.8753125 0.0546875 6.5553125 0.0546875 5.1953125 C-0.6053125 5.1953125 -1.2653125 5.1953125 -1.9453125 5.1953125 C-1.9453125 4.5353125 -1.9453125 3.8753125 -1.9453125 3.1953125 C-2.6053125 2.8653125 -3.2653125 2.5353125 -3.9453125 2.1953125 C-1.9453125 0.1953125 -1.9453125 0.1953125 0 0 Z " fill="#F8F8F8" transform="translate(66.9453125,232.8046875)"/>
<path d="M0 0 C0 0.66 0 1.32 0 2 C0.66 2.33 1.32 2.66 2 3 C0.75283203 3.19916016 0.75283203 3.19916016 -0.51953125 3.40234375 C-1.60621094 3.57894531 -2.69289063 3.75554687 -3.8125 3.9375 C-4.89144531 4.11152344 -5.97039062 4.28554687 -7.08203125 4.46484375 C-10.04933356 4.93871921 -10.04933356 4.93871921 -13 6 C-13.33 6.825 -13.66 7.65 -14 8.5 C-14.495 9.7375 -14.495 9.7375 -15 11 C-15.99 11.33 -16.98 11.66 -18 12 C-17.70359143 8.54190006 -17.03653935 7.04489121 -14.8125 4.3125 C-10.10927195 0.44540138 -5.99693305 -0.28556824 0 0 Z " fill="#DDDFDC" transform="translate(424,239)"/>
<path d="M0 0 C2 2 2 2 2 5.1875 C0.53551913 10.77083332 -2.43435305 14.44710842 -7.375 17.4375 C-11.06888977 18.22904781 -14.21392788 18.24426272 -18 18 C-18.99 17.34 -19.98 16.68 -21 16 C-20.09636719 15.86722656 -19.19273437 15.73445313 -18.26171875 15.59765625 C-17.08222656 15.42105469 -15.90273438 15.24445313 -14.6875 15.0625 C-13.51574219 14.88847656 -12.34398437 14.71445312 -11.13671875 14.53515625 C-7.98358597 14.07906969 -7.98358597 14.07906969 -5 13 C-5 12.34 -5 11.68 -5 11 C-4.34 11 -3.68 11 -3 11 C-2.01 7.37 -1.02 3.74 0 0 Z " fill="#D1D1CE" transform="translate(336,257)"/>
<path d="M0 0 C0.66 0 1.32 0 2 0 C2.061875 0.825 2.12375 1.65 2.1875 2.5 C3.10300624 6.44371917 4.68091291 8.96133446 6.94140625 12.265625 C8 14 8 14 8 16 C9.98 16.66 11.96 17.32 14 18 C13.67 18.66 13.34 19.32 13 20 C8.45690707 19.73275924 6.26144715 17.87691594 3.29296875 14.671875 C-0.19626372 10.16011821 -0.22031132 5.50778288 0 0 Z " fill="#F1F1F1" transform="translate(185,254)"/>
<path d="M0 0 C0.33 0 0.66 0 1 0 C1 7.26 1 14.52 1 22 C0.01 22 -0.98 22 -2 22 C-2.05416741 19.27056463 -2.09375225 16.54221436 -2.125 13.8125 C-2.14175781 13.04357422 -2.15851563 12.27464844 -2.17578125 11.48242188 C-2.21266851 7.1850566 -1.9958504 3.92098169 0 0 Z " fill="#EAEAE9" transform="translate(224,251)"/>
<path d="M0 0 C0.99 0.33 1.98 0.66 3 1 C3 10.57 3 20.14 3 30 C2.67 30 2.34 30 2 30 C1.93941406 29.00097656 1.87882812 28.00195312 1.81640625 26.97265625 C1.73261719 25.68230469 1.64882813 24.39195312 1.5625 23.0625 C1.48128906 21.77472656 1.40007812 20.48695313 1.31640625 19.16015625 C1.35080812 16.13976043 1.35080812 16.13976043 0 15 C-0.07313567 12.46950598 -0.09247527 9.96695163 -0.0625 7.4375 C-0.05798828 6.72658203 -0.05347656 6.01566406 -0.04882812 5.28320312 C-0.03700864 3.52209987 -0.01907263 1.76103964 0 0 Z " fill="#E9EBE9" transform="translate(446,241)"/>
<path d="M0 0 C0 3 0 3 -1 6 C-1.22560676 8.39254576 -1.40848595 10.78928123 -1.5625 13.1875 C-1.64628906 14.45980469 -1.73007812 15.73210937 -1.81640625 17.04296875 C-1.87699219 18.01878906 -1.93757813 18.99460937 -2 20 C-2.99 20 -3.98 20 -5 20 C-5.0814222 17.77144426 -5.13938079 15.54202345 -5.1875 13.3125 C-5.22230469 12.07113281 -5.25710938 10.82976562 -5.29296875 9.55078125 C-4.98212299 5.78333068 -4.2772857 3.97205083 -2 1 C-1.34 0.67 -0.68 0.34 0 0 Z " fill="#D1D1D1" transform="translate(361,253)"/>
<path d="M0 0 C0.33 0.99 0.66 1.98 1 3 C1.77085938 2.90460938 2.54171875 2.80921875 3.3359375 2.7109375 C4.33882813 2.60007812 5.34171875 2.48921875 6.375 2.375 C7.37273437 2.25898438 8.37046875 2.14296875 9.3984375 2.0234375 C10.25695312 2.01570313 11.11546875 2.00796875 12 2 C12.66 2.66 13.32 3.32 14 4 C13.67 4.66 13.34 5.32 13 6 C7.79948761 7.19419173 2.77424849 7.70540748 -2 5 C-2 3.68 -2 2.36 -2 1 C-1.34 0.67 -0.68 0.34 0 0 Z " fill="#EBEBEB" transform="translate(100,264)"/>
<path d="M0 0 C3.3 0 6.6 0 10 0 C8.515 1.485 8.515 1.485 7 3 C5.68 3 4.36 3 3 3 C3 4.98 3 6.96 3 9 C4.32 8.67 5.64 8.34 7 8 C7 8.99 7 9.98 7 11 C4.625 11.125 4.625 11.125 2 11 C0 9 0 9 -0.1953125 6.8359375 C-0.13020833 4.55729167 -0.06510417 2.27864583 0 0 Z " fill="#CBCBCC" transform="translate(98,245)"/>
<path d="M0 0 C2.375 0.3125 2.375 0.3125 5 1 C7.30019361 4.45029042 7.43132515 5.94554358 7 10 C6.01 10.66 5.02 11.32 4 12 C3.32645501 10.56570999 2.66140299 9.12742943 2 7.6875 C1.62875 6.88699219 1.2575 6.08648437 0.875 5.26171875 C0 3 0 3 0 0 Z " fill="#FAFAF9" transform="translate(56,246)"/>
<path d="M0 0 C3.3134464 1.40570453 5.46252683 3.67505367 7.0625 6.875 C7.13315617 8.91555005 7.14671976 10.95834257 7.125 13 C7.11597656 14.09570312 7.10695313 15.19140625 7.09765625 16.3203125 C7.08605469 17.16335938 7.07445313 18.00640625 7.0625 18.875 C6.0725 18.215 5.0825 17.555 4.0625 16.875 C3.76953125 14.0546875 3.76953125 14.0546875 3.875 10.75 C3.90207031 9.65429688 3.92914063 8.55859375 3.95703125 7.4296875 C3.99183594 6.58664063 4.02664062 5.74359375 4.0625 4.875 C3.4025 4.875 2.7425 4.875 2.0625 4.875 C2.0625 4.215 2.0625 3.555 2.0625 2.875 C-0.2475 2.545 -2.5575 2.215 -4.9375 1.875 C-1.9375 -0.125 -1.9375 -0.125 0 0 Z " fill="#BFC1BE" transform="translate(109.9375,240.125)"/>
<path d="M0 0 C3 1 3 1 5 2 C4.55090939 3.48199902 4.09043436 4.96055236 3.625 6.4375 C3.36976563 7.26121094 3.11453125 8.08492188 2.8515625 8.93359375 C2 11 2 11 0 12 C0 10.35 0 8.7 0 7 C-0.99 7.33 -1.98 7.66 -3 8 C-3.99 7.34 -4.98 6.68 -6 6 C-5.67 5.01 -5.34 4.02 -5 3 C-3.35 3.33 -1.7 3.66 0 4 C0 2.68 0 1.36 0 0 Z " fill="#F7F9F8" transform="translate(289,252)"/>
<path d="M0 0 C0.66 0 1.32 0 2 0 C9.31769306 16.04692082 9.31769306 16.04692082 8 20 C7.896875 19.360625 7.79375 18.72125 7.6875 18.0625 C7.3471875 17.0415625 7.3471875 17.0415625 7 16 C6.01 15.67 5.02 15.34 4 15 C2.83203125 12.63671875 2.83203125 12.63671875 1.8125 9.6875 C1.46832031 8.72199219 1.12414062 7.75648438 0.76953125 6.76171875 C0 4 0 4 0 0 Z " fill="#EEEFED" transform="translate(273,248)"/>
<path d="M0 0 C0.99 0.33 1.98 0.66 3 1 C3.765625 2.7421875 3.765625 2.7421875 4.25 4.875 C4.50523437 5.92300781 4.50523437 5.92300781 4.765625 6.9921875 C5 9 5 9 4 12 C3.34 9.69 2.68 7.38 2 5 C-0.7839183 6.39195915 -0.97898997 8.15575779 -2 11 C-2.66 11 -3.32 11 -4 11 C-3.48964169 6.6109185 -2.47785723 3.66291938 0 0 Z " fill="#D9D9D7" transform="translate(166,238)"/>
<path d="M0 0 C2.2790669 2.2790669 3.26250642 4.33378568 4.625 7.25 C5.07101562 8.18328125 5.51703125 9.1165625 5.9765625 10.078125 C7.08251803 13.23558584 7.18664338 15.67971259 7 19 C4.33753193 17.66876597 4.05398348 16.3235622 2.875 13.625 C2.52179688 12.83351563 2.16859375 12.04203125 1.8046875 11.2265625 C1 9 1 9 1 6 C0.34 6 -0.32 6 -1 6 C-0.67 4.02 -0.34 2.04 0 0 Z " fill="#F5F5F5" transform="translate(393,255)"/>
<path d="M0 0 C1.18851563 0.10183594 2.37703125 0.20367187 3.6015625 0.30859375 C4.51679687 0.39238281 5.43203125 0.47617188 6.375 0.5625 C6.705 1.5525 7.035 2.5425 7.375 3.5625 C6.38757813 3.55089844 5.40015625 3.53929687 4.3828125 3.52734375 C3.10148437 3.51832031 1.82015625 3.50929687 0.5 3.5 C-1.41425781 3.48259766 -1.41425781 3.48259766 -3.3671875 3.46484375 C-6.51164652 3.33073431 -6.51164652 3.33073431 -8.625 4.5625 C-8.625 3.2425 -8.625 1.9225 -8.625 0.5625 C-5.68113377 -0.90943312 -3.25109964 -0.28686173 0 0 Z " fill="#EDEFEA" transform="translate(101.625,239.4375)"/>
<path d="M0 0 C0.33 0 0.66 0 1 0 C1.33 2.64 1.66 5.28 2 8 C2.12375 7.360625 2.2475 6.72125 2.375 6.0625 C2.58125 5.381875 2.7875 4.70125 3 4 C3.66 3.67 4.32 3.34 5 3 C5.33 5.97 5.66 8.94 6 12 C5.34 12 4.68 12 4 12 C3.67 13.32 3.34 14.64 3 16 C-0.13107836 12.61416198 -0.33550778 10.28890538 -0.1875 5.75 C-0.14689453 4.13351563 -0.14689453 4.13351563 -0.10546875 2.484375 C-0.07066406 1.66453125 -0.03585937 0.8446875 0 0 Z " fill="#FBFCFB" transform="translate(404,251)"/>
<path d="M0 0 C0.66 0.33 1.32 0.66 2 1 C1.34 3.64 0.68 6.28 0 9 C0.66 9.33 1.32 9.66 2 10 C1.67 10.66 1.34 11.32 1 12 C-1.64 12 -4.28 12 -7 12 C-7 11.34 -7 10.68 -7 10 C-6.34 10 -5.68 10 -5 10 C-4.67 9.01 -4.34 8.02 -4 7 C-3.34 7 -2.68 7 -2 7 C-1.855625 6.030625 -1.71125 5.06125 -1.5625 4.0625 C-1 1 -1 1 0 0 Z " fill="#FAFAFA" transform="translate(157,263)"/>
<path d="M0 0 C1.5625 1.125 1.5625 1.125 3 3 C2.875 6.0625 2.875 6.0625 2 9 C-1.08888522 11.05925681 -1.70935927 11.2390374 -5.1875 11.125 C-7.0746875 11.063125 -7.0746875 11.063125 -9 11 C-6.79441118 9.28454203 -4.75983147 7.87991574 -2.25 6.625 C-1.5075 6.08875 -0.765 5.5525 0 5 C0.41780879 2.37305578 0.41780879 2.37305578 0 0 Z " fill="#EFF1F2" transform="translate(109,246)"/>
<path d="M0 0 C3.28345207 2.01484559 5.7352855 3.64704734 8.0625 6.75 C9.80127609 9.25474004 9.80127609 9.25474004 12.625 9.4375 C15.17899853 9.19920496 15.17899853 9.19920496 17 7 C17.33 8.32 17.66 9.64 18 11 C9.85614849 11.62645012 9.85614849 11.62645012 6.4375 9.125 C5 7 5 7 5 5 C2.03 4.505 2.03 4.505 -1 4 C-1.33 3.01 -1.66 2.02 -2 1 C-1.34 0.67 -0.68 0.34 0 0 Z " fill="#FCFCFC" transform="translate(231,264)"/>
<path d="M0 0 C1.32 0 2.64 0 4 0 C4 1.32 4 2.64 4 4 C3.34 4 2.68 4 2 4 C2 4.66 2 5.32 2 6 C-1.85756507 8.15305957 -4.55129785 9.39253254 -9 9 C-9.33 8.34 -9.66 7.68 -10 7 C-7.69 7 -5.38 7 -3 7 C-2.34 5.68 -1.68 4.36 -1 3 C-0.34 3 0.32 3 1 3 C0.67 2.01 0.34 1.02 0 0 Z " fill="#E0E0E0" transform="translate(428,262)"/>
<path d="M0 0 C0.66 0.33 1.32 0.66 2 1 C1.67515625 1.85271484 1.67515625 1.85271484 1.34375 2.72265625 C-0.45981958 7.7242219 -1.3389604 11.68962036 -1 17 C-1.66 17 -2.32 17 -3 17 C-4.51369421 13.44281861 -5.39749129 11.33857879 -4.27734375 7.56640625 C-1.62518064 1.62518064 -1.62518064 1.62518064 0 0 Z " fill="#E6E7E6" transform="translate(195,247)"/>
<path d="M0 0 C0.33 0 0.66 0 1 0 C1.375 2.1875 1.375 2.1875 1 5 C-2.00683952 8.73823292 -2.00683952 8.73823292 -5 10 C-8.7550864 10.11847323 -12.30854053 9.66341176 -16 9 C-16 8.67 -16 8.34 -16 8 C-15.40832031 7.95101563 -14.81664062 7.90203125 -14.20703125 7.8515625 C-9.80895528 7.43543133 -6.03071103 6.95034405 -2 5 C-2 4.34 -2 3.68 -2 3 C-1.34 3 -0.68 3 0 3 C0 2.01 0 1.02 0 0 Z " fill="#E7E7E7" transform="translate(434,265)"/>
<path d="M0 0 C0.99 0 1.98 0 3 0 C3.03738281 0.68707031 3.07476562 1.37414062 3.11328125 2.08203125 C3.17902344 2.98308594 3.24476563 3.88414062 3.3125 4.8125 C3.39951172 6.15248047 3.39951172 6.15248047 3.48828125 7.51953125 C4.06313581 10.30604 4.8206856 11.24135754 7 13 C5.0625 13.5625 5.0625 13.5625 3 14 C0.90277606 11.90277606 1.13059891 7.90285764 1 5 C1.33 4.34 1.66 3.68 2 3 C1.34 3 0.68 3 0 3 C-0.33 4.32 -0.66 5.64 -1 7 C-1.04254356 5.00045254 -1.04080783 2.99958364 -1 1 C-0.67 0.67 -0.34 0.34 0 0 Z " fill="#E9EBE8" transform="translate(225,240)"/>
<path d="M0 0 C5.94 0.99 5.94 0.99 12 2 C8.3750203 3.81248985 6.62740416 4.31888915 2.75 4.625 C1.85796875 4.69976562 0.9659375 4.77453125 0.046875 4.8515625 C-0.62859375 4.90054688 -1.3040625 4.94953125 -2 5 C-2 4.01 -2 3.02 -2 2 C-1.34 2 -0.68 2 0 2 C0 1.34 0 0.68 0 0 Z " fill="#DADAD9" transform="translate(316,238)"/>
<path d="M0 0 C1.1446875 0.1546875 1.1446875 0.1546875 2.3125 0.3125 C2.3125 1.3025 2.3125 2.2925 2.3125 3.3125 C1.714375 3.35375 1.11625 3.395 0.5 3.4375 C-2.03850832 4.18989901 -2.03850832 4.18989901 -3.4375 7.375 C-3.85 8.344375 -4.2625 9.31375 -4.6875 10.3125 C-5.3475 10.3125 -6.0075 10.3125 -6.6875 10.3125 C-6.0259761 5.68183269 -5.25613325 0.61117828 0 0 Z " fill="#AFB6AF" transform="translate(295.6875,237.6875)"/>
<path d="M0 0 C0.99 0 1.98 0 3 0 C5 3 5 3 5 6 C4.34 6 3.68 6 3 6 C3 5.34 3 4.68 3 4 C1.68 5.32 0.36 6.64 -1 8 C-1.99 7.67 -2.98 7.34 -4 7 C-1.125 1.125 -1.125 1.125 0 0 Z " fill="#EFF0F0" transform="translate(383,251)"/>
<path d="M0 0 C2.28804937 1.65883579 3.56463437 2.62283307 5 5 C5.44207004 8.70298665 5.29251428 12.28831877 5 16 C4.34 16.33 3.68 16.66 3 17 C2.92652344 15.86111328 2.92652344 15.86111328 2.8515625 14.69921875 C2.77679688 13.70535156 2.70203125 12.71148437 2.625 11.6875 C2.55539062 10.70136719 2.48578125 9.71523438 2.4140625 8.69921875 C2.16134528 5.78471567 2.16134528 5.78471567 0 3 C0 2.01 0 1.02 0 0 Z " fill="#CACBC8" transform="translate(327,247)"/>
<path d="M0 0 C3 3 3 3 3.29296875 5.26171875 C3.25816406 6.06222656 3.22335938 6.86273438 3.1875 7.6875 C3.16042969 8.49574219 3.13335937 9.30398438 3.10546875 10.13671875 C3.07066406 10.75160156 3.03585938 11.36648438 3 12 C1.68 12.33 0.36 12.66 -1 13 C-0.67 8.71 -0.34 4.42 0 0 Z " fill="#E4E6E4" transform="translate(117,257)"/>
<path d="M0 0 C1.48828125 1.01953125 1.48828125 1.01953125 3 3 C3.2172101 5.64996326 3.28351554 8.05076558 3.1875 10.6875 C3.17396484 11.38939453 3.16042969 12.09128906 3.14648438 12.81445312 C3.11120182 14.54329829 3.05739583 16.27174765 3 18 C0.73150334 14.34827367 0.6104049 10.9872882 0.375 6.75 C0.30023438 5.48671875 0.22546875 4.2234375 0.1484375 2.921875 C0.09945313 1.95765625 0.05046875 0.9934375 0 0 Z " fill="#DDDDDA" transform="translate(350,255)"/>
<path d="M0 0 C0.99 0.495 0.99 0.495 2 1 C3 4 3 4 2.9375 6.5 C2.78382114 9.25394157 2.78382114 9.25394157 5 12 C3.35 11.67 1.7 11.34 0 11 C0 7.37 0 3.74 0 0 Z " fill="#F0F0F0" transform="translate(451,258)"/>
<path d="M0 0 C5.75 -0.125 5.75 -0.125 8 1 C8 2.98 8 4.96 8 7 C3.44615385 7.36923077 3.44615385 7.36923077 1.1875 5.5 C0.795625 5.005 0.40375 4.51 0 4 C1.32 4.33 2.64 4.66 4 5 C4.33 4.01 4.66 3.02 5 2 C3.35 1.67 1.7 1.34 0 1 C0 0.67 0 0.34 0 0 Z " fill="#D5D5D1" transform="translate(206,241)"/>
<path d="M0 0 C2.92879371 0.62759865 5.36095629 1.58622659 8 3 C7.67 3.99 7.34 4.98 7 6 C4.69 6 2.38 6 0 6 C0 4.02 0 2.04 0 0 Z " fill="#FDFDFD" transform="translate(453,247)"/>
<path d="M0 0 C2.0625 0.4375 2.0625 0.4375 4 1 C-0.39349416 4.60491828 -3.28513643 5.43376276 -8.94921875 5.3359375 C-11 5 -11 5 -14 3 C-12.60974609 2.80083984 -12.60974609 2.80083984 -11.19140625 2.59765625 C-9.99386719 2.42105469 -8.79632813 2.24445313 -7.5625 2.0625 C-6.36753906 1.88847656 -5.17257812 1.71445312 -3.94140625 1.53515625 C-1.12044324 1.31014787 -1.12044324 1.31014787 0 0 Z " fill="#E3E3E2" transform="translate(329,270)"/>
<path d="M0 0 C0.33 0 0.66 0 1 0 C1 1.65 1 3.3 1 5 C1.66 5.33 2.32 5.66 3 6 C2.01 8.64 1.02 11.28 0 14 C-0.33 14 -0.66 14 -1 14 C-1.02685938 11.85423363 -1.04633088 9.70837355 -1.0625 7.5625 C-1.07410156 6.36753906 -1.08570313 5.17257812 -1.09765625 3.94140625 C-1 1 -1 1 0 0 Z " fill="#EEEEEF" transform="translate(228,259)"/>
<path d="M0 0 C0.99 0 1.98 0 3 0 C2.5020163 3.73487777 2.12508244 5.81237635 0 9 C-0.66 9 -1.32 9 -2 9 C-1.125 2.25 -1.125 2.25 0 0 Z " fill="#F5F9F4" transform="translate(293,242)"/>
<path d="M0 0 C0.66 0 1.32 0 2 0 C2.66 3.63 3.32 7.26 4 11 C3.01 11.33 2.02 11.66 1 12 C-0.26237731 9.47524538 -0.09856404 7.68799534 -0.0625 4.875 C-0.05347656 3.96492188 -0.04445313 3.05484375 -0.03515625 2.1171875 C-0.02355469 1.41851562 -0.01195312 0.71984375 0 0 Z " fill="#E0E0E0" transform="translate(410,253)"/>
<path d="M0 0 C0.66 0.33 1.32 0.66 2 1 C2.6875 3.5 2.6875 3.5 3 6 C2 7 2 7 -1.5625 7.0625 C-2.696875 7.041875 -3.83125 7.02125 -5 7 C-5.33 5.68 -5.66 4.36 -6 3 C-5.34 3 -4.68 3 -4 3 C-4 3.66 -4 4.32 -4 5 C-2.35 5 -0.7 5 1 5 C0.67 3.35 0.34 1.7 0 0 Z " fill="#FBFBFB" transform="translate(181,268)"/>
<path d="M0 0 C2.12038635 2.61514317 4.13091744 5.19637616 6 8 C6.66 7.34 7.32 6.68 8 6 C7.67 7.32 7.34 8.64 7 10 C5.68 10 4.36 10 3 10 C0.96564469 6.27034861 0 4.33094958 0 0 Z " fill="#FDFDFD" transform="translate(279,264)"/>
<path d="M0 0 C0.98726527 2.66561622 1.0275526 3.90126985 0.25 6.6875 C-1 9 -1 9 -4 10 C-4 8.02 -4 6.04 -4 4 C-3.01 3.67 -2.02 3.34 -1 3 C-0.67 2.01 -0.34 1.02 0 0 Z " fill="#EAEAEA" transform="translate(373,263)"/>
<path d="M0 0 C0.99 0.33 1.98 0.66 3 1 C4.125 6.625 4.125 6.625 3 10 C2.34 10 1.68 10 1 10 C0.67 6.7 0.34 3.4 0 0 Z " fill="#ECECEB" transform="translate(53,264)"/>
<path d="M0 0 C1.2375 -0.04125 2.475 -0.0825 3.75 -0.125 C4.79414063 -0.15980469 4.79414063 -0.15980469 5.859375 -0.1953125 C8 0 8 0 12 2 C5.565 2.495 5.565 2.495 -1 3 C-0.67 2.01 -0.34 1.02 0 0 Z " fill="#DFE1DE" transform="translate(200,239)"/>
<path d="M0 0 C0.33 0 0.66 0 1 0 C1.33 2.64 1.66 5.28 2 8 C1.34 8 0.68 8 0 8 C-0.99 9.485 -0.99 9.485 -2 11 C-2 9.68 -2 8.36 -2 7 C-2.66 7 -3.32 7 -4 7 C-4.33 7.66 -4.66 8.32 -5 9 C-5 7.35 -5 5.7 -5 4 C-4.67 4.66 -4.34 5.32 -4 6 C-2.68 5.67 -1.36 5.34 0 5 C0 3.35 0 1.7 0 0 Z " fill="#E8E8E6" transform="translate(337,251)"/>
<path d="M0 0 C0.33 0.66 0.66 1.32 1 2 C1.66 2 2.32 2 3 2 C3.33 2.99 3.66 3.98 4 5 C1.69 4.67 -0.62 4.34 -3 4 C-3.66 5.32 -4.32 6.64 -5 8 C-5 6.02 -5 4.04 -5 2 C-3.35 1.34 -1.7 0.68 0 0 Z " fill="#EAECEA" transform="translate(456,244)"/>
<path d="M0 0 C3.94727588 -0.17942163 6.5980513 -0.09350689 10 2 C10 2.99 10 3.98 10 5 C8.948125 4.5359375 8.948125 4.5359375 7.875 4.0625 C4.91063343 2.96697322 2.12301892 2.43577008 -1 2 C-0.67 1.34 -0.34 0.68 0 0 Z " fill="#E2E3DF" transform="translate(317,244)"/>
<path d="M0 0 C1.65 0 3.3 0 5 0 C5 0.66 5 1.32 5 2 C4.34 2 3.68 2 3 2 C3.33 3.98 3.66 5.96 4 8 C3.34 8 2.68 8 2 8 C0.23537317 4.91190305 0 3.76687864 0 0 Z " fill="#B9BDB9" transform="translate(269,239)"/>
<path d="M0 0 C0.66 0.33 1.32 0.66 2 1 C1.67 2.98 1.34 4.96 1 7 C0.34 7 -0.32 7 -1 7 C-1 7.66 -1 8.32 -1 9 C-1.66 9 -2.32 9 -3 9 C-2.67 7.35 -2.34 5.7 -2 4 C-2.66 3.67 -3.32 3.34 -4 3 C-2.68 3 -1.36 3 0 3 C0 2.01 0 1.02 0 0 Z " fill="#D5DEDA" transform="translate(298,238)"/>
<path d="M0 0 C1.98 0.66 3.96 1.32 6 2 C6 2.66 6 3.32 6 4 C4.02 4.66 2.04 5.32 0 6 C-0.38218767 4.34385343 -0.71395102 2.67542976 -1 1 C-0.67 0.67 -0.34 0.34 0 0 Z " fill="#F2F2F2" transform="translate(52,234)"/>
<path d="M0 0 C0.66 0 1.32 0 2 0 C2.99 3.3 3.98 6.6 5 10 C2 9 2 9 0.8125 6.6875 C0 4 0 4 0 0 Z " fill="#DFE0DB" transform="translate(273,248)"/>
<path d="M0 0 C0.66 0 1.32 0 2 0 C2.04898438 0.62648437 2.09796875 1.25296875 2.1484375 1.8984375 C2.22320312 2.71570313 2.29796875 3.53296875 2.375 4.375 C2.44460937 5.18710938 2.51421875 5.99921875 2.5859375 6.8359375 C2.82892588 9.20334191 2.82892588 9.20334191 5 11 C3.68 11 2.36 11 1 11 C-0.17571451 7.32589215 -0.07366746 3.83070817 0 0 Z " fill="#F4F5F3" transform="translate(228,240)"/>
<path d="M0 0 C1.5 1.375 1.5 1.375 3 3 C3 3.66 3 4.32 3 5 C3.66 5 4.32 5 5 5 C6.625 6.5 6.625 6.5 8 8 C7.67 8.66 7.34 9.32 7 10 C5.109375 9.78515625 5.109375 9.78515625 3 9 C1.953125 6.93359375 1.953125 6.93359375 1.25 4.4375 C1.00765625 3.61121094 0.7653125 2.78492188 0.515625 1.93359375 C0.34546875 1.29550781 0.1753125 0.65742188 0 0 Z " fill="#F4F4F4" transform="translate(46,268)"/>
<path d="M0 0 C3 1 3 1 4.25 3.3125 C5.0275526 6.09873015 4.98726527 7.33438378 4 10 C2.5393715 7.35261084 2 6.10551666 2 3 C0.68 2.67 -0.64 2.34 -2 2 C-1.34 2 -0.68 2 0 2 C0 1.34 0 0.68 0 0 Z " fill="#D4D6D3" transform="translate(274,239)"/>
<path d="M0 0 C2 0 2 0 4.125 1.875 C6 4 6 4 6 6 C6.66 6.33 7.32 6.66 8 7 C7.34 7.66 6.68 8.32 6 9 C5.401875 8.21625 4.80375 7.4325 4.1875 6.625 C2.08914751 3.85425677 2.08914751 3.85425677 -1 2 C-0.67 1.34 -0.34 0.68 0 0 Z " fill="#F0F0F1" transform="translate(233,263)"/>
<path d="M0 0 C1 3 1 3 -0.3125 6.625 C-2 10 -2 10 -4 11 C-3.48964169 6.6109185 -2.47785723 3.66291938 0 0 Z " fill="#EBEBEB" transform="translate(379,260)"/>
<path d="M0 0 C0.33 0.99 0.66 1.98 1 3 C-0.4375 5.6875 -0.4375 5.6875 -2 8 C-2.99 7.67 -3.98 7.34 -5 7 C-3.75023244 3.34683329 -3.32901247 2.21934164 0 0 Z " fill="#E7E7E7" transform="translate(313,246)"/>
<path d="M0 0 C3.3 0 6.6 0 10 0 C8.515 1.485 8.515 1.485 7 3 C3.3125 2.6875 3.3125 2.6875 0 2 C0 1.34 0 0.68 0 0 Z " fill="#DFDFE1" transform="translate(98,245)"/>
<path d="M0 0 C2.62386487 3.06117568 3 3.73173127 3 8 C2.01 7.67 1.02 7.34 0 7 C-1.1875 3.9375 -1.1875 3.9375 -2 1 C-1.34 0.67 -0.68 0.34 0 0 Z " fill="#E5E4E4" transform="translate(44,239)"/>
<path d="M0 0 C2 3 2 3 2 5 C1.34 5 0.68 5 0 5 C-0.33 6.32 -0.66 7.64 -1 9 C-1.66 8.67 -2.32 8.34 -3 8 C-2.37240135 5.07120629 -1.41377341 2.63904371 0 0 Z " fill="#ECECEC" transform="translate(153,265)"/>
<path d="M0 0 C0.804375 0.4640625 0.804375 0.4640625 1.625 0.9375 C4.3984957 2.17827439 7.00042837 2.5909675 10 3 C6.375 6 6.375 6 3 6 C3 5.34 3 4.68 3 4 C2.34 4 1.68 4 1 4 C0.67 2.68 0.34 1.36 0 0 Z " fill="#DFDFDF" transform="translate(313,265)"/>
<path d="M0 0 C1.32 0.33 2.64 0.66 4 1 C5.046875 2.84765625 5.046875 2.84765625 5.75 5.0625 C5.99234375 5.79597656 6.2346875 6.52945313 6.484375 7.28515625 C6.65453125 7.85105469 6.8246875 8.41695313 7 9 C6.34 9 5.68 9 5 9 C3.35 6.03 1.7 3.06 0 0 Z " fill="#FBFBF9" transform="translate(344,249)"/>
<path d="M0 0 C-0.33 1.32 -0.66 2.64 -1 4 C-1.66 4 -2.32 4 -3 4 C-3 4.66 -3 5.32 -3 6 C-3.99 5.67 -4.98 5.34 -6 5 C-3.74193548 0 -3.74193548 0 0 0 Z " fill="#DADDDB" transform="translate(417,246)"/>
<path d="M0 0 C2.56995074 1.28497537 2.90434463 2.49912373 4.125 5.0625 C4.47820312 5.79597656 4.83140625 6.52945313 5.1953125 7.28515625 C5.46085937 7.85105469 5.72640625 8.41695312 6 9 C5.01 9 4.02 9 3 9 C1.68 6.36 0.36 3.72 -1 1 C-0.67 0.67 -0.34 0.34 0 0 Z " fill="#F9FAF8" transform="translate(348,240)"/>
<path d="M0 0 C1.125 3.75 1.125 3.75 0 6 C-1.32 5.34 -2.64 4.68 -4 4 C-2.68 2.68 -1.36 1.36 0 0 Z " fill="#E9ECEA" transform="translate(289,258)"/>
<path d="M0 0 C1.98 0 3.96 0 6 0 C6.33 1.65 6.66 3.3 7 5 C6.34 5 5.68 5 5 5 C5 4.34 5 3.68 5 3 C3.68 3 2.36 3 1 3 C0.67 2.01 0.34 1.02 0 0 Z " fill="#E5E8E1" transform="translate(342,240)"/>
<path d="M0 0 C2.475 0.99 2.475 0.99 5 2 C5 2.99 5 3.98 5 5 C3.68 4.67 2.36 4.34 1 4 C0.67 2.68 0.34 1.36 0 0 Z " fill="#E8E8E8" transform="translate(194,264)"/>
<path d="M0 0 C0.33 0.66 0.66 1.32 1 2 C1.66 2 2.32 2 3 2 C3 3.65 3 5.3 3 7 C2.01 7 1.02 7 0 7 C0 4.69 0 2.38 0 0 Z " fill="#D2D3D2" transform="translate(112,260)"/>
<path d="M0 0 C0.66 0 1.32 0 2 0 C4 3 4 3 3.625 5.1875 C3.41875 5.785625 3.2125 6.38375 3 7 C2.34 6.67 1.68 6.34 1 6 C0.375 2.9375 0.375 2.9375 0 0 Z " fill="#D9D9D9" transform="translate(41,255)"/>
<path d="M0 0 C1.5625 1.125 1.5625 1.125 3 3 C2.6875 6.1875 2.6875 6.1875 2 9 C1.34 8.67 0.68 8.34 0 8 C0 5.36 0 2.72 0 0 Z " fill="#D8DAD9" transform="translate(109,246)"/>
<path d="M0 0 C0.99 0.33 1.98 0.66 3 1 C2.67 2.32 2.34 3.64 2 5 C0.68 4.67 -0.64 4.34 -2 4 C-1.34 2.68 -0.68 1.36 0 0 Z " fill="#C0C1C0" transform="translate(384,238)"/>
<path d="M0 0 C2 1 2 1 2 1 Z " fill="#FFFFFF" transform="translate(416,238)"/>
<path d="" fill="#FFFFFF" transform="translate(0,0)"/>
</svg>
