<?xml version="1.0" encoding="UTF-8"?>
<svg version="1.1" xmlns="http://www.w3.org/2000/svg" width="500" height="500">
<path d="M0 0 C165 0 330 0 500 0 C500 165 500 330 500 500 C335 500 170 500 0 500 C0 335 0 170 0 0 Z " fill="#000000" transform="translate(0,0)"/>
<path d="M0 0 C1.26046143 0.00519653 1.26046143 0.00519653 2.54638672 0.01049805 C8.39643448 0.11292198 14.57321659 0.27395321 19.75 3.3125 C20.245 4.7975 20.245 4.7975 20.75 6.3125 C21.471875 6.60125 22.19375 6.89 22.9375 7.1875 C30.07869555 10.04397822 34.10444082 15.79125128 37.75 22.3125 C41.02101059 30.34134418 40.79196635 38.42103261 37.6875 46.4375 C32.51666215 57.52400553 25.65586802 63.89851552 14.75 69.3125 C9.60006183 71.06796875 4.91710141 71.59255198 -0.48022461 71.53955078 C-1.27128601 71.53984283 -2.06234741 71.54013489 -2.87738037 71.54043579 C-5.46914987 71.53905226 -8.06062502 71.52353755 -10.65234375 71.5078125 C-12.45837751 71.50407889 -14.26441331 71.50123356 -16.07044983 71.49923706 C-20.80674912 71.49162801 -25.5429243 71.47200312 -30.2791748 71.4498291 C-35.11904217 71.42931172 -39.95892973 71.42022277 -44.79882812 71.41015625 C-54.28260639 71.38875452 -63.76629284 71.35465172 -73.25 71.3125 C-73.27312589 62.4636761 -73.29091634 53.61486253 -73.30181217 44.76601505 C-73.30704046 40.65755715 -73.31413713 36.54911986 -73.32543945 32.44067383 C-73.33627025 28.47903172 -73.34227724 24.51740948 -73.34487724 20.55575371 C-73.34673114 19.04101689 -73.3503511 17.52628121 -73.35573006 16.01155281 C-73.36294307 13.89708187 -73.36399083 11.78269406 -73.36352539 9.66821289 C-73.365746 8.46242081 -73.36796661 7.25662872 -73.37025452 6.01429749 C-73.25 3.3125 -73.25 3.3125 -72.25 2.3125 C-70.41884117 2.21398829 -68.58380067 2.18277371 -66.75 2.1875 C-65.7496875 2.18492187 -64.749375 2.18234375 -63.71875 2.1796875 C-61.25 2.3125 -61.25 2.3125 -60.25 3.3125 C-60.15603943 5.24556498 -60.13256483 7.18208838 -60.13647461 9.11743164 C-60.13655014 10.35864273 -60.13662567 11.59985382 -60.13670349 12.87867737 C-60.14181089 14.2433374 -60.1470269 15.60799702 -60.15234375 16.97265625 C-60.154208 18.36128183 -60.15563187 19.74990807 -60.15663147 21.13853455 C-60.16045613 24.79971115 -60.17028597 28.4608483 -60.18133545 32.12200928 C-60.19155068 35.85542253 -60.19618403 39.58884233 -60.20117188 43.32226562 C-60.2113781 50.65237863 -60.23094974 57.9823832 -60.25 65.3125 C-46.39 64.9825 -32.53 64.6525 -18.25 64.3125 C-21.88 62.0025 -25.51 59.6925 -29.25 57.3125 C-31.58796637 54.22304445 -33.42357657 51.62581943 -35.25 48.3125 C-35.78625 47.53261719 -36.3225 46.75273437 -36.875 45.94921875 C-39.99712314 39.96219285 -39.06158585 32.36045574 -37.37109375 26.01171875 C-33.00832386 14.6800359 -25.9183877 7.9274409 -15.25 2.3125 C-10.13241414 0.13372582 -5.47420202 -0.03622077 0 0 Z " fill="#050505" transform="translate(337.25,214.6875)"/>
<path d="M0 0 C9.1265625 -0.0928125 9.1265625 -0.0928125 18.4375 -0.1875 C20.33943115 -0.21481201 22.2413623 -0.24212402 24.20092773 -0.27026367 C25.73680998 -0.27903924 27.2726993 -0.28668063 28.80859375 -0.29296875 C29.58303833 -0.30831665 30.35748291 -0.32366455 31.15539551 -0.33947754 C39.56465159 -0.34343484 47.08256027 2.25273744 54 7 C57.43135984 10.60732702 58.30752197 13.52370757 58.5625 18.375 C58.32655219 23.96924651 56.95776165 27.97596004 53 32 C49.41926906 34.45914012 46.3753188 36 42 36 C44.29782893 40.12998488 47.10096207 43.63436767 50.1875 47.1875 C54.35004562 52.035039 58.40054271 56.94730236 62.34375 61.9765625 C63.93687517 64.00547834 63.93687517 64.00547834 65.71875 65.6484375 C67 67 67 67 67 69 C55.01923077 70.51442308 55.01923077 70.51442308 50.640625 67.23046875 C48.57042936 64.5828425 46.79262178 61.84284464 45 59 C43.3156074 56.71476195 41.56244856 54.48522027 39.8125 52.25 C39.01457031 51.20328125 38.21664062 50.1565625 37.39453125 49.078125 C35.70350428 46.90434155 33.99354656 44.81713327 32.19921875 42.734375 C30 40 30 40 30 38 C23.73 38 17.46 38 11 38 C11 48.23 11 58.46 11 69 C7.37 69 3.74 69 0 69 C0 46.23 0 23.46 0 0 Z " fill="#EFEFEF" transform="translate(58,217)"/>
<path d="M0 0 C1.26046143 0.00519653 1.26046143 0.00519653 2.54638672 0.01049805 C8.39643448 0.11292198 14.57321659 0.27395321 19.75 3.3125 C20.245 4.7975 20.245 4.7975 20.75 6.3125 C21.471875 6.60125 22.19375 6.89 22.9375 7.1875 C30.07869555 10.04397822 34.10444082 15.79125128 37.75 22.3125 C41.02101059 30.34134418 40.79196635 38.42103261 37.6875 46.4375 C32.51666215 57.52400553 25.65586802 63.89851552 14.75 69.3125 C9.60006183 71.06796875 4.91710141 71.59255198 -0.48022461 71.53955078 C-1.27128601 71.53984283 -2.06234741 71.54013489 -2.87738037 71.54043579 C-5.46914987 71.53905226 -8.06062502 71.52353755 -10.65234375 71.5078125 C-12.45837751 71.50407889 -14.26441331 71.50123356 -16.07044983 71.49923706 C-20.80674912 71.49162801 -25.5429243 71.47200312 -30.2791748 71.4498291 C-35.11904217 71.42931172 -39.95892973 71.42022277 -44.79882812 71.41015625 C-54.28260639 71.38875452 -63.76629284 71.35465172 -73.25 71.3125 C-73.27312589 62.4636761 -73.29091634 53.61486253 -73.30181217 44.76601505 C-73.30704046 40.65755715 -73.31413713 36.54911986 -73.32543945 32.44067383 C-73.33627025 28.47903172 -73.34227724 24.51740948 -73.34487724 20.55575371 C-73.34673114 19.04101689 -73.3503511 17.52628121 -73.35573006 16.01155281 C-73.36294307 13.89708187 -73.36399083 11.78269406 -73.36352539 9.66821289 C-73.365746 8.46242081 -73.36796661 7.25662872 -73.37025452 6.01429749 C-73.25 3.3125 -73.25 3.3125 -72.25 2.3125 C-68.62 2.3125 -64.99 2.3125 -61.25 2.3125 C-61.25 23.4325 -61.25 44.5525 -61.25 66.3125 C-49.20577743 66.27976469 -49.20577743 66.27976469 -37.16210938 66.20117188 C-32.24432741 66.15892249 -27.32691505 66.12185446 -22.40893555 66.11694336 C-18.44041176 66.11264058 -14.47271782 66.08401621 -10.50445366 66.03906822 C-8.99638148 66.02615596 -7.48820968 66.02176317 -5.98008919 66.02634621 C1.87064109 66.04463413 8.45924483 65.96398925 15.1474762 61.38139343 C16.75 60.3125 16.75 60.3125 18.75 60.3125 C18.9975 59.6525 19.245 58.9925 19.5 58.3125 C20.76767293 55.27008497 22.21753174 52.38793767 23.75 49.47265625 C27.91123823 40.48373148 27.53591636 30.91180042 25.75 21.3125 C25.09 21.3125 24.43 21.3125 23.75 21.3125 C22.82013573 19.76075199 21.95623362 18.16924208 21.125 16.5625 C17.46787438 10.20970439 13.4406381 8.5427127 6.75 6.3125 C-2.44858684 5.66611282 -9.08145664 5.96565512 -16.5 11.6875 C-21.11725033 16.09487531 -22.68317269 20.16571593 -24.25 26.3125 C-24.91 26.3125 -25.57 26.3125 -26.25 26.3125 C-26.03864491 41.45321006 -23.23027184 52.36396305 -12.25 63.3125 C-19.00210918 63.14057129 -24.13379522 61.88902073 -29.25 57.3125 C-31.533572 54.46061822 -33.41802181 51.46847423 -35.25 48.3125 C-35.79011719 47.53003906 -36.33023438 46.74757813 -36.88671875 45.94140625 C-39.99278795 39.95176565 -39.06054579 32.35654973 -37.37109375 26.01171875 C-33.00832386 14.6800359 -25.9183877 7.9274409 -15.25 2.3125 C-10.13241414 0.13372582 -5.47420202 -0.03622077 0 0 Z " fill="#F0F0F0" transform="translate(337.25,214.6875)"/>
<path d="M0 0 C10 0 10 0 12.59375 2.01953125 C13.53734375 3.40205078 13.53734375 3.40205078 14.5 4.8125 C15.2321875 5.81925781 15.964375 6.82601562 16.71875 7.86328125 C17.4715625 8.89839844 18.224375 9.93351563 19 11 C20.64091641 12.8564165 22.3077609 14.69024429 24 16.5 C28.10565205 20.96100987 31.95639445 25.57127145 35.76171875 30.2890625 C38.7450804 33.9024185 41.88402912 37.35950838 45.0546875 40.80859375 C46.80818009 42.78391372 48.41520188 44.88693584 50 47 C50.33 31.49 50.66 15.98 51 0 C52.65 0 54.3 0 56 0 C57 1 57 1 57.12025452 3.70179749 C57.11803391 4.90758957 57.11581329 6.11338165 57.11352539 7.35571289 C57.11367142 8.01910172 57.11381744 8.68249054 57.1139679 9.36598206 C57.11326881 11.56823956 57.10547665 13.77041345 57.09765625 15.97265625 C57.09579206 17.49580336 57.09436816 19.01895107 57.09336853 20.542099 C57.08954346 24.55837651 57.07971328 28.57461808 57.06866455 32.59088135 C57.05845019 36.68623366 57.05387086 40.78159176 57.04882812 44.87695312 C57.038091 52.91798528 57.02101472 60.95898817 57 69 C52.23655301 68.25306171 50.85610679 67.14147572 47.9375 63.25 C44.46901265 58.79463855 40.87157508 54.60861029 37 50.5 C32.56712619 45.77030369 28.42078147 40.89483174 24.36328125 35.8359375 C21.1035809 31.92429708 17.64889693 28.20929776 14.16015625 24.50195312 C11.26966752 21.42211419 8.64921605 18.31152006 6 15 C5.67 32.82 5.34 50.64 5 69 C3.35 69 1.7 69 0 69 C0 46.23 0 23.46 0 0 Z " fill="#F2F2F2" transform="translate(389,217)"/>
<path d="M0 0 C16.17 0 32.34 0 49 0 C49 1.65 49 3.3 49 5 C36.46 5 23.92 5 11 5 C11 13.91 11 22.82 11 32 C19.58 32 28.16 32 37 32 C37 33.32 37 34.64 37 36 C28.42 36 19.84 36 11 36 C11 45.24 11 54.48 11 64 C24.53 64 38.06 64 52 64 C51.67 65.65 51.34 67.3 51 69 C34.17 69 17.34 69 0 69 C0 46.23 0 23.46 0 0 Z " fill="#E8E8E8" transform="translate(133,217)"/>
<path d="M0 0 C1.65 0 3.3 0 5 0 C4.67 1.65 4.34 3.3 4 5 C3.34 5 2.68 5 2 5 C1.81824219 6.06927734 1.81824219 6.06927734 1.6328125 7.16015625 C-0.21937196 15.47211987 -4.55537091 23.19676995 -8.41479492 30.72094727 C-10.34323755 34.53449087 -11.96545699 38.36529361 -13.4375 42.375 C-16.33622953 50.23055702 -20.17027768 57.56881696 -24 65 C-24.66919871 66.3320643 -25.3374139 67.66463417 -26 69 C-27.7890625 68.890625 -27.7890625 68.890625 -30 68 C-31.7109375 65.296875 -31.7109375 65.296875 -33.375 61.75 C-33.67535156 61.12029297 -33.97570312 60.49058594 -34.28515625 59.84179688 C-35.20581094 57.90142971 -36.10549978 55.95254339 -37 54 C-37.50789063 52.90171875 -38.01578125 51.8034375 -38.5390625 50.671875 C-39.51941535 48.54340838 -40.49593175 46.41317085 -41.46875 44.28125 C-43.08378738 40.82045561 -44.78002283 37.40977931 -46.5 34 C-49.82480066 27.40166212 -52.94034731 20.72451141 -56 14 C-56.48984375 12.948125 -56.9796875 11.89625 -57.484375 10.8125 C-57.94328125 9.8225 -58.4021875 8.8325 -58.875 7.8125 C-59.28492188 6.93207031 -59.69484375 6.05164063 -60.1171875 5.14453125 C-61 3 -61 3 -61 1 C-57.04 1 -53.08 1 -49 1 C-45.64233711 7.54115306 -42.30838993 14.0478901 -39.5625 20.875 C-37.29161469 26.49205737 -34.62867922 31.85554224 -31.88891602 37.25341797 C-29.42982656 42.10553355 -27.14343754 46.99864574 -25 52 C-21.99310611 47.48965917 -19.73266158 43.33486079 -17.84985352 38.23168945 C-16.42612108 34.49301143 -14.81338006 30.84189273 -13.1875 27.1875 C-12.83856689 26.40141357 -12.48963379 25.61532715 -12.13012695 24.80541992 C-9.74011465 19.48705501 -7.12843464 14.35671156 -4.25390625 9.28125 C-2.59654495 6.26598832 -1.27697917 3.19244792 0 0 Z " fill="#F1F1F1" transform="translate(249,217)"/>
<path d="M0 0 C6.5278125 -0.0928125 6.5278125 -0.0928125 13.1875 -0.1875 C14.55156982 -0.21481201 15.91563965 -0.24212402 17.32104492 -0.27026367 C18.40490479 -0.27775635 19.48876465 -0.28524902 20.60546875 -0.29296875 C21.71043701 -0.3086792 22.81540527 -0.32438965 23.95385742 -0.34057617 C28.59921201 0.17880105 32.02577718 2.43093261 35 6 C36.45016555 10.35049665 36.51070107 14.45334185 36 19 C33.78158291 23.43683417 31.09224987 26.23677944 27 29 C23.95385742 29.45410156 23.95385742 29.45410156 20.60546875 29.390625 C19.52160889 29.38063477 18.43774902 29.37064453 17.32104492 29.36035156 C15.27494019 29.30572754 15.27494019 29.30572754 13.1875 29.25 C6.6596875 29.12625 6.6596875 29.12625 0 29 C0 19.43 0 9.86 0 0 Z " fill="#090909" transform="translate(69,222)"/>
<path d="M0 0 C3.63 0 7.26 0 11 0 C11 21.12 11 42.24 11 64 C10.67 64 10.34 64 10 64 C10 43.54 10 23.08 10 2 C7.03 2 4.06 2 1 2 C1 23.78 1 45.56 1 68 C27.07 68 53.14 68 80 68 C80 68.33 80 68.66 80 69 C53.27 69 26.54 69 -1 69 C-1.020625 57.800625 -1.04125 46.60125 -1.0625 35.0625 C-1.071604 31.52152588 -1.08070801 27.98055176 -1.09008789 24.33227539 C-1.09460449 20.02038574 -1.09460449 20.02038574 -1.09544373 18.00413513 C-1.09698297 16.59084255 -1.10050751 15.1775513 -1.10557556 13.76426697 C-1.11285548 11.62805893 -1.11390734 9.4919314 -1.11352539 7.35571289 C-1.115746 6.14992081 -1.11796661 4.94412872 -1.12025452 3.70179749 C-1 1 -1 1 0 0 Z " fill="#9B9B9B" transform="translate(265,217)"/>
<path d="M0 0 C1.65 0 3.3 0 5 0 C4.67 1.65 4.34 3.3 4 5 C3.34 5 2.68 5 2 5 C1.87882812 5.71285156 1.75765625 6.42570313 1.6328125 7.16015625 C-0.07584812 14.82803445 -3.94640014 21.98547931 -7.5 28.9375 C-10.38512915 34.58858992 -12.74230973 40.27933946 -14.859375 46.2578125 C-15.95472387 48.89115123 -17.183387 50.81797634 -19 53 C-19.495 51.515 -19.495 51.515 -20 50 C-21.485 50.495 -21.485 50.495 -23 51 C-22.70351562 50.26136719 -22.40703125 49.52273438 -22.1015625 48.76171875 C-21.46392389 47.16309997 -20.83103646 45.56253499 -20.2109375 43.95703125 C-15.58962796 32.10142875 -10.52803216 20.35927068 -4.25390625 9.28125 C-2.59654495 6.26598832 -1.27697917 3.19244792 0 0 Z " fill="#DCDCDB" transform="translate(249,217)"/>
<path d="M0 0 C3.31469389 1.22499557 4.84046741 2.16720362 6.875 5.0625 C7.52024143 8.85329343 7.17781734 10.53839307 5.25 13.875 C2.33389393 16.56088717 0.83243993 17.14326408 -3.125 17.0625 C-5.87216387 15.29210551 -7.65645922 13.99958156 -9.125 11.0625 C-9.5625 8.25 -9.5625 8.25 -9.125 5.0625 C-6.16174116 1.74647225 -4.52716343 0.09054327 0 0 Z " fill="#666666" transform="translate(457.125,216.9375)"/>
<path d="M0 0 C1.65 0 3.3 0 5 0 C6 1 6 1 6.12025452 3.70179749 C6.1169236 5.51048561 6.1169236 5.51048561 6.11352539 7.35571289 C6.11367142 8.01910172 6.11381744 8.68249054 6.1139679 9.36598206 C6.11326881 11.56823956 6.10547665 13.77041345 6.09765625 15.97265625 C6.09579206 17.49580336 6.09436816 19.01895107 6.09336853 20.542099 C6.08954346 24.55837651 6.07971328 28.57461808 6.06866455 32.59088135 C6.05845019 36.68623366 6.05387086 40.78159176 6.04882812 44.87695312 C6.038091 52.91798528 6.02101472 60.95898817 6 69 C4.35 68.67 2.7 68.34 1 68 C1.99 67.505 1.99 67.505 3 67 C3.33 45.55 3.66 24.1 4 2 C3.01 2 2.02 2 1 2 C1 17.18 1 32.36 1 48 C0.67 48 0.34 48 0 48 C0 32.16 0 16.32 0 0 Z " fill="#A2A2A2" transform="translate(440,217)"/>
<path d="M0 0 C1.98 0 3.96 0 6 0 C7.10844919 3.32534757 6.84454356 5.62182575 6 9 C5.34 8.67 4.68 8.34 4 8 C4 7.34 4 6.68 4 6 C3.34 6 2.68 6 2 6 C2 6.99 2 7.98 2 9 C1.34 9 0.68 9 0 9 C0 6.03 0 3.06 0 0 Z " fill="#919191" transform="translate(453,221)"/>
<path d="M0 0 C0 3 0 3 -1.75 4.82421875 C-2.4925 5.43910156 -3.235 6.05398437 -4 6.6875 C-4.7425 7.31011719 -5.485 7.93273437 -6.25 8.57421875 C-6.8275 9.04472656 -7.405 9.51523438 -8 10 C-8 7 -8 7 -6.25 5.17578125 C-5.5075 4.56089844 -4.765 3.94601563 -4 3.3125 C-3.2575 2.68988281 -2.515 2.06726563 -1.75 1.42578125 C-1.1725 0.95527344 -0.595 0.48476562 0 0 Z " fill="#C3C3C3" transform="translate(314,222)"/>
<path d="M0 0 C-1.38188453 3.21043882 -2.92421903 5.04936365 -5.625 7.25 C-6.57246094 8.03117188 -6.57246094 8.03117188 -7.5390625 8.828125 C-8.02117187 9.21484375 -8.50328125 9.6015625 -9 10 C-7.6834994 5.81113445 -4.97532335 0 0 0 Z " fill="#333333" transform="translate(324,224)"/>
<path d="M0 0 C0.99 0.33 1.98 0.66 3 1 C2.67 1.33 2.34 1.66 2 2 C1.92851801 3.35243917 1.91600546 4.70834367 1.9375 6.0625 C1.958125 7.361875 1.97875 8.66125 2 10 C1.01 9.67 0.02 9.34 -1 9 C-1.09765625 2.84765625 -1.09765625 2.84765625 -1 1 C-0.67 0.67 -0.34 0.34 0 0 Z " fill="#121212" transform="translate(447,220)"/>
<path d="M0 0 C0.66 0 1.32 0 2 0 C2 2.31 2 4.62 2 7 C0.68 6.34 -0.64 5.68 -2 5 C-1.34 3.35 -0.68 1.7 0 0 Z " fill="#191919" transform="translate(460,222)"/>
</svg>
